<?xml version="1.0" encoding="UTF-8" standalone="no"?>
<!DOCTYPE svg PUBLIC "-//W3C//DTD SVG 1.1//EN" "http://www.w3.org/Graphics/SVG/1.1/DTD/svg11.dtd">
<svg width="100%" height="100%" viewBox="0 0 318 800" version="1.1" xmlns="http://www.w3.org/2000/svg" xmlns:xlink="http://www.w3.org/1999/xlink" xml:space="preserve" xmlns:serif="http://www.serif.com/" style="fill-rule:evenodd;clip-rule:evenodd;stroke-linejoin:round;stroke-miterlimit:2;">
    <g transform="matrix(1,0,0,1,-653.143,-130)">
        <g transform="matrix(2.38095,0,0,2.38095,-1020.56,-1155.71)">
            <path d="M703,540L703,750L736,750L736,732.6L721,732.6L721,540L703,540Z" style="fill:rgb(35,31,32);"/>
        </g>
        <g transform="matrix(2.38095,0,0,2.38095,-1020.56,-1155.71)">
            <path d="M770.5,750L788.5,750L779.5,540L746.5,540L737.5,750L755.5,750L757.6,690L768.4,690L770.5,750ZM758.2,672.6L762.4,561.9L762.4,557.4L763.9,557.4L763.9,561.9L767.8,672.6L758.2,672.6Z" style="fill:rgb(35,31,32);"/>
        </g>
        <g transform="matrix(2.38095,0,0,2.38095,-1020.56,-1155.71)">
            <path d="M836.5,567C836.5,549 830.5,540 818.5,540L791.5,540L791.5,750L818.5,750C830.5,750 836.5,741 836.5,723L836.5,668.4C836.5,648.6 830.5,642.9 818.5,642.9L818.5,641.4C830.5,641.4 836.5,636 836.5,615.9L836.5,567ZM817.6,624C817.6,630 817,633.6 812.5,633.6L809.5,633.6L809.5,557.4L812.5,557.4C817,557.4 817.6,561 817.6,567L817.6,624ZM817.6,723C817.6,729 817,732.6 812.5,732.6L809.5,732.6L809.5,651L812.5,651C817,651 817.6,654.6 817.6,660.6L817.6,723Z" style="fill:rgb(35,31,32);"/>
        </g>
        <g transform="matrix(0.957978,0,0,0.957978,-20.0284,123.792)">
            <path d="M702.7,622.5C702.7,636.6 708.1,642 717.7,648.3C725.2,652.8 729.7,656.7 729.7,663L729.7,722.4C729.7,729.9 728.8,732 725.8,732C722.8,732 721.6,729.9 721.6,722.4L721.6,660L702.7,660L702.7,723C702.7,741 709.9,751.5 723.4,751.5L727.9,751.5C741.4,751.5 748.6,741 748.6,723L748.6,663C748.6,648.9 743.2,643.2 733,636.9C725.8,632.4 721.6,628.8 721.6,622.5L721.6,567C721.6,559.5 722.8,557.4 725.8,557.4C728.8,557.4 729.7,559.5 729.7,567L729.7,625.5L748.6,625.5L748.6,567C748.6,549 741.4,538.5 727.9,538.5L723.4,538.5C709.9,538.5 702.7,549 702.7,567L702.7,622.5Z" style="fill:rgb(255,187,0);"/>
        </g>
        <g transform="matrix(0.957978,0,0,0.957978,-20.0284,123.792)">
            <rect x="754.9" y="540" width="18" height="210" style="fill:rgb(255,187,0);"/>
        </g>
        <g transform="matrix(0.957978,0,0,0.957978,-20.0284,123.792)">
            <path d="M802,633.6L802,651L806.5,651L806.5,722.4C806.5,729.9 805.6,732 802.6,732C799.6,732 798.4,729.9 798.4,722.4L798.4,566.7C798.4,559.2 799.6,557.4 802.6,557.4C805.6,557.4 806.5,559.2 806.5,566.7L806.5,625.5L825.4,625.5L825.4,567C825.4,549 818.2,538.5 804.7,538.5L800.2,538.5C786.7,538.5 779.5,549 779.5,567L779.5,721.5C779.5,742.5 783.7,751.5 795.7,751.5C807.7,751.5 811,741.9 811,722.4L812.5,722.4L812.5,750L825.4,750L825.4,633.6L802,633.6Z" style="fill:rgb(255,187,0);"/>
        </g>
        <g transform="matrix(0.957978,0,0,0.957978,-20.0284,123.792)">
            <path d="M876.4,540L876.4,732.6L874.9,732.6L874.9,728.1L864.4,540L831.4,540L831.4,750L849.4,750L849.4,557.4L850.9,557.4L850.9,561.9L861.4,750L894.4,750L894.4,540L876.4,540Z" style="fill:rgb(255,187,0);"/>
        </g>
        <g transform="matrix(0.957978,0,0,0.957978,-20.0284,123.792)">
            <path d="M930.4,750L948.4,750L939.4,540L906.4,540L897.4,750L915.4,750L917.5,690L928.3,690L930.4,750ZM918.1,672.6L922.3,561.9L922.3,557.4L923.8,557.4L923.8,561.9L927.7,672.6L918.1,672.6Z" style="fill:rgb(255,187,0);"/>
        </g>
        <g transform="matrix(0.957978,0,0,0.957978,-20.0284,123.792)">
            <path d="M951.4,540L951.4,750L984.4,750L984.4,732.6L969.4,732.6L969.4,540L951.4,540Z" style="fill:rgb(255,187,0);"/>
        </g>
        <g transform="matrix(0.957978,0,0,0.957978,-20.0284,123.792)">
            <path d="M988.6,622.5C988.6,636.6 994,642 1003.6,648.3C1011.1,652.8 1015.6,656.7 1015.6,663L1015.6,722.4C1015.6,729.9 1014.7,732 1011.7,732C1008.7,732 1007.5,729.9 1007.5,722.4L1007.5,660L988.6,660L988.6,723C988.6,741 995.8,751.5 1009.3,751.5L1013.8,751.5C1027.3,751.5 1034.5,741 1034.5,723L1034.5,663C1034.5,648.9 1029.1,643.2 1018.9,636.9C1011.7,632.4 1007.5,628.8 1007.5,622.5L1007.5,567C1007.5,559.5 1008.7,557.4 1011.7,557.4C1014.7,557.4 1015.6,559.5 1015.6,567L1015.6,625.5L1034.5,625.5L1034.5,567C1034.5,549 1027.3,538.5 1013.8,538.5L1009.3,538.5C995.8,538.5 988.6,549 988.6,567L988.6,622.5Z" style="fill:rgb(255,187,0);"/>
        </g>
        <g transform="matrix(1.77778,0,0,1,0,0)">
            <g transform="matrix(0.593906,0,0,1,-24.525,0)">
                <ellipse cx="810" cy="905" rx="150" ry="25" style="fill:rgb(35,31,32);"/>
            </g>
        </g>
    </g>
</svg>
