<?xml version="1.0" encoding="UTF-8" standalone="no"?>
<!-- Created with Inkscape (http://www.inkscape.org/) -->

<svg
   version="1.1"
   id="svg1734"
   xml:space="preserve"
   width="682.66669"
   height="682.66669"
   viewBox="0 0 682.66669 682.66669"
   xmlns="http://www.w3.org/2000/svg"
   xmlns:svg="http://www.w3.org/2000/svg"><defs
     id="defs1738"><clipPath
       clipPathUnits="userSpaceOnUse"
       id="clipPath1748"><path
         d="M 0,512 H 512 V 0 H 0 Z"
         id="path1746" /></clipPath></defs><g
     id="g1740"
     transform="matrix(1.3333333,0,0,-1.3333333,0,682.66667)"><g
       id="g1742"><g
         id="g1744"
         clip-path="url(#clipPath1748)"><g
           id="g1750"
           transform="translate(414.6342,51.2314)"><path
             d="m 0,0 c -74.428,-48.468 -175.086,-40.046 -240.398,25.266 -74.981,74.981 -74.981,196.549 0,271.529 74.981,74.981 196.548,74.981 271.529,0 65.251,-65.251 73.718,-165.782 25.402,-240.189"
             style="fill:none;stroke:#000000;stroke-width:20;stroke-linecap:round;stroke-linejoin:round;stroke-miterlimit:10;stroke-dasharray:none;stroke-opacity:1"
             id="path1752" /></g><g
           id="g1754"
           transform="translate(445.7652,76.4976)"><path
             d="M 0,0 V 0"
             style="fill:none;stroke:#000000;stroke-width:20;stroke-linecap:round;stroke-linejoin:round;stroke-miterlimit:10;stroke-dasharray:none;stroke-opacity:1"
             id="path1756" /></g><g
           id="g1758"
           transform="translate(310.0006,67.1331)"><path
             d="m 0,0 c -80.153,0 -145.129,64.976 -145.129,145.129 0,80.153 64.976,145.129 145.129,145.129 80.153,0 145.129,-64.976 145.129,-145.129 C 145.129,64.976 80.153,0 0,0 Z"
             style="fill:none;stroke:#000000;stroke-width:20;stroke-linecap:round;stroke-linejoin:round;stroke-miterlimit:10;stroke-dasharray:none;stroke-opacity:1"
             id="path1760" /></g><g
           id="g1762"
           transform="translate(273.8483,443.7379)"><path
             d="m 0,0 h 72 c 13.255,0 24,10.745 24,24 v 0 C 96,37.255 85.255,48 72,48 H 0 C -13.255,48 -24,37.255 -24,24 v 0 C -24,10.745 -13.255,0 0,0 Z"
             style="fill:none;stroke:#000000;stroke-width:20;stroke-linecap:round;stroke-linejoin:round;stroke-miterlimit:10;stroke-dasharray:none;stroke-opacity:1"
             id="path1764" /></g><g
           id="g1766"
           transform="translate(344.0551,404.2621)"><path
             d="M 0,0 V 39.476 H -68.414 V 0"
             style="fill:none;stroke:#000000;stroke-width:20;stroke-linecap:round;stroke-linejoin:round;stroke-miterlimit:10;stroke-dasharray:none;stroke-opacity:1"
             id="path1768" /></g><g
           id="g1770"
           transform="translate(328.9551,231.2166)"><path
             d="M 0,0 51.373,51.373"
             style="fill:none;stroke:#000000;stroke-width:20;stroke-linecap:round;stroke-linejoin:round;stroke-miterlimit:10;stroke-dasharray:none;stroke-opacity:1"
             id="path1772" /></g><g
           id="g1774"
           transform="translate(288.9265,212.2621)"><path
             d="m 0,0 c 0,-11.639 9.435,-21.074 21.074,-21.074 11.639,0 21.074,9.435 21.074,21.074 0,11.639 -9.435,21.074 -21.074,21.074 C 9.435,21.074 0,11.639 0,0 Z"
             style="fill:none;stroke:#000000;stroke-width:20;stroke-linecap:round;stroke-linejoin:round;stroke-miterlimit:10;stroke-dasharray:none;stroke-opacity:1"
             id="path1776" /></g><g
           id="g1778"
           transform="translate(416.9196,212.14)"><path
             d="M 0,0 H -9.264"
             style="fill:none;stroke:#000000;stroke-width:20;stroke-linecap:round;stroke-linejoin:round;stroke-miterlimit:10;stroke-dasharray:none;stroke-opacity:1"
             id="path1780" /></g><g
           id="g1782"
           transform="translate(203.0817,212.3842)"><path
             d="M 0,0 H 9.264"
             style="fill:none;stroke:#000000;stroke-width:20;stroke-linecap:round;stroke-linejoin:round;stroke-miterlimit:10;stroke-dasharray:none;stroke-opacity:1"
             id="path1784" /></g><g
           id="g1786"
           transform="translate(310.1228,319.1811)"><path
             d="M 0,0 V -9.264"
             style="fill:none;stroke:#000000;stroke-width:20;stroke-linecap:round;stroke-linejoin:round;stroke-miterlimit:10;stroke-dasharray:none;stroke-opacity:1"
             id="path1788" /></g><g
           id="g1790"
           transform="translate(309.8785,105.3432)"><path
             d="M 0,0 V 9.264"
             style="fill:none;stroke:#000000;stroke-width:20;stroke-linecap:round;stroke-linejoin:round;stroke-miterlimit:10;stroke-dasharray:none;stroke-opacity:1"
             id="path1792" /></g><g
           id="g1794"
           transform="translate(294.1852,228.0776)"><path
             d="M 0,0 -27.149,27.149"
             style="fill:none;stroke:#000000;stroke-width:20;stroke-linecap:round;stroke-linejoin:round;stroke-miterlimit:10;stroke-dasharray:none;stroke-opacity:1"
             id="path1796" /></g><g
           id="g1798"
           transform="translate(324.9023,227.1638)"><path
             d="M 0,0 53.973,53.972"
             style="fill:none;stroke:#000000;stroke-width:20;stroke-linecap:round;stroke-linejoin:round;stroke-miterlimit:10;stroke-dasharray:none;stroke-opacity:1"
             id="path1800" /></g><g
           id="g1802"
           transform="translate(126.7609,150.5582)"><path
             d="M 0,0 H -76.761"
             style="fill:none;stroke:#000000;stroke-width:20;stroke-linecap:round;stroke-linejoin:round;stroke-miterlimit:10;stroke-dasharray:none;stroke-opacity:1"
             id="path1804" /></g><g
           id="g1806"
           transform="translate(118.0007,208.9946)"><path
             d="M 0,0 H -54.001"
             style="fill:none;stroke:#000000;stroke-width:20;stroke-linecap:round;stroke-linejoin:round;stroke-miterlimit:10;stroke-dasharray:none;stroke-opacity:1"
             id="path1808" /></g><g
           id="g1810"
           transform="translate(124.0942,267.431)"><path
             d="M 0,0 H -114.094"
             style="fill:none;stroke:#000000;stroke-width:20;stroke-linecap:round;stroke-linejoin:round;stroke-miterlimit:10;stroke-dasharray:none;stroke-opacity:1"
             id="path1812" /></g><g
           id="g1814"
           transform="translate(149.4276,325.8674)"><path
             d="M 0,0 H -71.261"
             style="fill:none;stroke:#000000;stroke-width:20;stroke-linecap:round;stroke-linejoin:round;stroke-miterlimit:10;stroke-dasharray:none;stroke-opacity:1"
             id="path1816" /></g><g
           id="g1818"
           transform="translate(10,150.5582)"><path
             d="M 0,0 V 0"
             style="fill:none;stroke:#000000;stroke-width:20;stroke-linecap:round;stroke-linejoin:round;stroke-miterlimit:10;stroke-dasharray:none;stroke-opacity:1"
             id="path1820" /></g></g></g></g></svg>
