<?xml version="1.0" encoding="UTF-8" standalone="no"?>
<!DOCTYPE svg PUBLIC "-//W3C//DTD SVG 1.1//EN" "http://www.w3.org/Graphics/SVG/1.1/DTD/svg11.dtd">
<svg width="100%" height="100%" viewBox="0 0 1024 1024" version="1.1" xmlns="http://www.w3.org/2000/svg" xmlns:xlink="http://www.w3.org/1999/xlink" xml:space="preserve" xmlns:serif="http://www.serif.com/" style="fill-rule:evenodd;clip-rule:evenodd;stroke-linejoin:round;stroke-miterlimit:2;">
    <rect x="-0" y="-0" width="1024" height="1024" style="fill:rgb(10,38,61);fill-rule:nonzero;"/>
    <path d="M424.03,270.927C430.209,277.652 436.261,282.197 443.922,287.069L442.872,290.702L432,283.506C428.102,280.351 424.575,276.042 424.03,270.927Z" style="fill:rgb(195,101,98);fill-rule:nonzero;"/>
    <path d="M921.64,715.34L933.269,710.501C934.855,713.818 936.522,717.145 937.522,720.695L928.875,723.353C928.362,722.777 927.918,722.141 927.487,721.5C925.779,718.964 923.958,717.307 921.64,715.34Z" style="fill:rgb(55,202,218);fill-rule:nonzero;"/>
    <path d="M425.523,246.05C428.14,246.069 431.111,246.385 433.25,248.06C435.659,249.947 437.352,252.303 437.664,255.398C437.915,257.883 437.847,262.244 436.25,264.142L432.639,264.223L429.25,263.441C425.73,262.179 422.271,259.179 420.622,255.811C419.8,254.131 419.705,252.476 420.367,250.72C421.333,248.154 423.126,247.113 425.523,246.05Z" style="fill:rgb(250,170,130);fill-rule:nonzero;"/>
    <path d="M97.702,865.75C102.482,864.913 109.376,865.061 114.25,865.461C116.07,865.61 117.372,866.778 118.411,868.233C119.856,870.256 119.881,872.398 119.476,874.75C118.313,876.642 116.993,877.546 115.137,878.719C112.12,879.314 108.778,879.045 105.708,879.044C103.169,879.043 100.214,879.334 97.75,878.672C95.984,878.197 94.506,877.037 93.644,875.424C92.821,873.883 92.698,871.435 93.306,869.794C94.112,867.619 95.663,866.615 97.702,865.75Z" style="fill:rgb(0,128,128);fill-rule:nonzero;"/>
    <path d="M430.679,399.922C430.455,399.08 429.301,395.958 429.456,395.31C429.828,393.754 431.407,391.625 432.179,390.124L437.596,378.876C438.992,381.399 439.642,384.364 440.565,387.092L446.855,405.189C448.001,408.496 448.873,412.195 450.496,415.282L441.215,424.344L431.056,400.692L430.679,399.922Z" style="fill:rgb(35,132,218);fill-rule:nonzero;"/>
    <path d="M291.646,344.46L297.951,357.779L236.611,418.913C237.161,415.729 239.763,413.645 241.669,411.167L250.378,399.604L270.844,373.206L281.21,358.86C284.585,353.973 287.753,348.959 291.646,344.46Z" style="fill:rgb(195,101,98);fill-rule:nonzero;"/>
    <path d="M213.143,449.027L215.347,449.715L257.951,484.571L251.03,493.432L207.934,459.434C207.275,458.808 207.601,459.187 207.013,458.25C208.745,454.68 210.383,451.888 213.143,449.027Z" style="fill:rgb(245,221,162);fill-rule:nonzero;"/>
    <path d="M415.013,293.977C415.887,293.073 416.605,290.325 417.064,289.085C419.172,283.381 421.498,277.609 423.068,271.74L423.223,271.142L424.03,270.927C424.575,276.042 428.102,280.351 432,283.506L442.872,290.702C441.25,296.037 439.43,301.835 439.05,307.401C438.957,308.755 437.935,310.108 437.266,311.259C434.757,315.569 432.104,319.71 428.613,323.299L424.6,315.667L417.854,303.09C416.417,300.311 414.397,297.172 415.013,293.977Z" style="fill:rgb(255,156,125);fill-rule:nonzero;"/>
    <path d="M415.013,293.977C418.563,296.058 419.864,299.682 421.71,303.203C423.198,306.042 424.932,309.039 425.72,312.165C425.904,312.892 425.869,313.464 425.712,314.188L424.6,315.667L417.854,303.09C416.417,300.311 414.397,297.172 415.013,293.977Z" style="fill:rgb(250,170,130);fill-rule:nonzero;"/>
    <path d="M845.306,865.624L896,865.587C897.492,866.598 898.424,867.599 899.124,869.31C899.856,871.097 899.93,874.517 898.98,876.25C898.091,877.872 896.54,878.675 894.877,879.266L846,879.338C844.086,879.122 842.643,877.784 841.573,876.25C840.531,874.755 840.151,872.393 840.625,870.64C841.281,868.218 843.261,866.826 845.306,865.624Z" style="fill:rgb(0,128,128);fill-rule:nonzero;"/>
    <path d="M139.593,401.444L146.341,392.4L199.296,434.197C196.706,438.45 195.617,441.001 195.491,446.094L188.883,441.202L139.593,401.444Z" style="fill:rgb(245,221,162);fill-rule:nonzero;"/>
    <path d="M613.055,534.864L604.249,511.864L639.192,497.426L648.966,521.017L613.055,534.864Z" style="fill:rgb(0,128,128);fill-rule:nonzero;"/>
    <path d="M403.183,211.197C410.23,209.888 418.676,208.389 425.021,212.57C430.19,215.976 432.641,221.998 436.007,226.935C438.262,230.243 441.413,233.233 444.865,235.274L443.548,235.529C438.044,237.505 432.462,238.463 426.714,239.585L405.354,243.688C403.147,240.62 401.406,237.518 400.498,233.807L400.321,233.062C400.02,231.878 399.709,230.722 399.597,229.5C399.089,223.973 399.431,215.543 403.183,211.197Z" style="fill:rgb(0,128,128);fill-rule:nonzero;"/>
    <path d="M121.545,753.39L138.647,747.424C141.938,750.426 143.202,754.111 146.047,757.278C149.974,761.648 156.411,764.982 159.429,769.983C160.049,771.011 160.118,773.117 160.268,774.335L161.46,785.989L166.158,824.743L165.57,826.047C164.273,825.191 163.569,823.306 162.842,821.95L158.013,813.139L137.901,778.008C132.979,769.585 128.483,760.344 121.545,753.39Z" style="fill:rgb(19,194,164);fill-rule:nonzero;"/>
    <path d="M389.724,821.223L393.657,798.145C398.217,800.221 402.91,802.739 407.75,804.029L408.388,804.202C411.228,804.92 415.068,804.339 417.585,802.839C419.799,801.519 420.411,800.177 420.984,797.75L421.198,796.866L421.32,796.291C424.508,798.168 427.696,800.109 431.027,801.721C436.052,804.153 466.503,817.065 467.773,819.25L468.08,823.166C464.793,822.416 461.247,822.417 457.883,822.228L439.481,821.559L389.724,821.223Z" style="fill:rgb(19,194,164);fill-rule:nonzero;"/>
    <path d="M469.572,233.709C471.404,233.726 473.617,233.309 475.021,234.5C475.165,236.002 475.326,237.153 474.588,238.552L474.266,239.082C473.828,239.99 473.957,241.058 473.947,242.043C473.936,243.049 473.67,245.037 473.944,245.956C474.13,246.585 475.181,247.761 475.571,248.331C477.525,251.188 480.898,254.94 481.811,258.25C480.161,260.703 477.045,261.459 474.372,262.331L474.44,276.663C474.205,279.173 473.745,280.739 471.75,282.358C466.872,283.765 460.14,281.952 455.306,280.748C451.887,280.044 447.572,278.314 445.26,275.641C439.848,269.386 444.759,260.163 444.226,253.188C444.002,250.253 442.023,247.786 441.426,244.971C440.947,242.717 441.469,239.697 441.586,237.366C450.533,234.931 460.371,234.73 469.572,233.709Z" style="fill:rgb(250,170,130);fill-rule:nonzero;"/>
    <path d="M639.192,497.426L689.501,477.037L698.888,501.106L700.897,506.844C695.387,510.251 689.109,512.396 683.107,514.77L651.464,526.961L648.966,521.017L639.192,497.426Z" style="fill:rgb(35,132,218);fill-rule:nonzero;"/>
    <path d="M698.888,501.106L700.897,506.844C695.387,510.251 689.109,512.396 683.107,514.77L651.464,526.961L648.966,521.017C654.394,519.262 697.618,502.813 698.888,501.106Z" style="fill:rgb(5,64,153);fill-rule:nonzero;"/>
    <path d="M454.54,330.975L455.282,329.75L479.959,403.735C468.989,405.027 459.169,408.175 450.496,415.282C448.873,412.195 448.001,408.496 446.855,405.189L440.565,387.092C439.642,384.364 438.992,381.399 437.596,378.876C442.64,368.498 447.13,358.149 450.702,347.162C452.384,341.987 454.256,336.447 454.54,330.975Z" style="fill:rgb(111,198,245);fill-rule:nonzero;"/>
    <path d="M403.183,211.197C404.891,209.223 406.533,207.482 408.75,206.044C415.893,201.41 425.031,198.479 433.062,195.726C437.226,194.298 441.77,192.437 446.175,192.076C450.307,191.737 454.628,194.077 457.626,196.75C462.706,201.279 466.078,207.921 468.122,214.343C473.709,212.601 479.981,212.034 485.826,211.969C487.615,211.95 489.711,211.821 491.305,212.764C492.744,213.615 493.107,214.701 493.432,216.25C492.112,219.998 486.694,221.809 483.25,223.444C471.423,229.057 457.74,232.932 444.865,235.274C441.413,233.233 438.262,230.243 436.007,226.935C432.641,221.998 430.19,215.976 425.021,212.57C418.676,208.389 410.23,209.888 403.183,211.197Z" style="fill:rgb(19,194,164);fill-rule:nonzero;"/>
    <path d="M124.046,427.238L121.684,424.888C122.938,421.961 125.652,419.139 127.631,416.625L139.593,401.444L188.883,441.202C183.807,449.377 176.959,456.568 170.84,463.984L124.695,427.66L124.046,427.238Z" style="fill:rgb(149,130,98);fill-rule:nonzero;"/>
    <path d="M195.682,447.071C196.143,450.229 197.085,457.496 199.468,459.52C200.595,460.603 201.166,460.761 202.75,460.706C204.478,460.647 206.307,459.972 207.934,459.434L251.03,493.432L234.558,514.939L178.053,469.154L195.682,447.071Z" style="fill:rgb(149,130,98);fill-rule:nonzero;"/>
    <path d="M921.64,715.34C923.958,717.307 925.779,718.964 927.487,721.5C927.918,722.141 928.362,722.777 928.875,723.353L926.126,724.397L724.688,794.313C724.462,791.327 723.636,788.443 723.582,785.438L913.375,718.277C915.741,718.001 919.24,716.134 921.64,715.34Z" style="fill:rgb(35,132,218);fill-rule:nonzero;"/>
    <path d="M223.305,420.044C227.559,413.54 230.47,405.139 233.751,398.059L247.551,369.926L260.764,343.113C262.628,339.574 264.53,335.086 267.5,332.332C271.575,328.553 279.319,326.537 284.399,324.257L291.646,344.46C287.753,348.959 284.585,353.973 281.21,358.86L270.844,373.206L250.378,399.604L241.669,411.167C239.763,413.645 237.161,415.729 236.611,418.913L228.762,428.703L229.136,429.437C230.263,431.676 231.212,433.738 230.434,436.297C229.823,438.309 228.173,439.695 226.697,441.084C223.096,444.475 219.771,447.462 215.347,449.715L213.143,449.027C210.383,451.888 208.745,454.68 207.013,458.25C207.601,459.187 207.275,458.808 207.934,459.434C206.307,459.972 204.478,460.647 202.75,460.706C201.166,460.761 200.595,460.603 199.468,459.52C197.085,457.496 196.143,450.229 195.682,447.071L195.491,446.094C195.617,441.001 196.706,438.45 199.296,434.197C204.886,429.636 213.705,427.861 220.57,426.281L223.305,420.044Z" style="fill:rgb(250,170,130);fill-rule:nonzero;"/>
    <path d="M546.013,895.231L709.754,895.253L775.468,895.065L808.691,895.102C810.276,895.166 811.934,895.387 813.283,896.288C814.481,897.089 815.666,898.832 815.89,900.25C816.175,902.059 816.024,903.821 814.802,905.25C812.968,907.395 810.197,907.24 807.625,907.426L629.675,907.193L570.243,907.438C561.007,907.478 551.16,908.195 542,907.521C541.013,907.448 540.061,907.154 539.269,906.534C537.76,905.353 536.642,903.423 536.552,901.5C536.478,899.91 537.293,898.039 538.431,896.939C540.465,894.971 543.373,895.395 546.013,895.231Z" style="fill:rgb(0,128,128);fill-rule:nonzero;"/>
    <path d="M453.276,418.411C460.102,413.242 466.134,410.245 474.471,408.286L474.692,408.948C475.625,411.674 476.331,414.182 479.012,415.553C481.695,416.924 484.988,417.563 487.852,418.533L506.179,424.85L551.123,440.168L571,447.034L571.516,447.192C573.507,447.753 575.918,447.469 577.984,447.425L590.392,447.112C592.135,447.112 593.987,448.72 595.133,449.925C596.887,451.768 597.65,453.928 598.322,456.328L598.379,456.341C598.187,461.26 597.24,464.725 593.563,468.25C592.251,469.509 591.027,470.267 589.25,470.611L588.659,470.729C584.607,471.444 580.012,470.825 576.005,470.049L574.049,465.004C573.746,463.289 572.916,461.621 572.252,460.012L569.914,456.56C568.733,455.078 566.643,452.469 564.829,451.844C562.54,451.056 558.155,451.629 555.628,451.643L535.091,451.837C530.211,451.905 525.283,452.164 520.427,451.601L519.631,451.503L452.473,451.222L443.341,428.581L453.276,418.411Z" style="fill:rgb(250,170,130);fill-rule:nonzero;"/>
    <path d="M572.252,460.012L592.241,459.751C590.355,461.987 588.834,464.513 585.701,464.878L574.049,465.004C573.746,463.289 572.916,461.621 572.252,460.012Z" style="fill:rgb(10,38,61);fill-rule:nonzero;"/>
    <path d="M452.473,451.222L443.341,428.581L453.276,418.411C455.143,423.875 457.823,429.056 460.472,434.177C466.404,436.599 472.609,438.332 478.731,440.2L508.534,448.731C512.221,449.71 515.984,450.383 519.631,451.503L452.473,451.222Z" style="fill:rgb(195,101,98);fill-rule:nonzero;"/>
    <path d="M615.297,541.121L651.464,526.961L666.671,562.732L703.177,548.259L703.443,549.107C706.037,557.147 709.895,565.169 713.021,573.05C714.062,575.672 715.984,578.996 716.027,581.794L715.46,581.856L678.923,594.84C671.892,597.282 663.49,599.499 657.027,603.135L644.809,572.473L629.979,579.049L615.297,541.121Z" style="fill:rgb(0,128,128);fill-rule:nonzero;"/>
    <path d="M651.464,526.961L683.107,514.77C689.109,512.396 695.387,510.251 700.897,506.844L715.48,544.122L780.619,520.783L792.101,555.774L794.182,562.515C776.136,570.197 757.312,575.841 738.804,582.287C732.439,584.504 724.851,586.236 718.958,589.413C718.218,586.986 717.689,583.066 715.46,581.856L716.027,581.794C715.984,578.996 714.062,575.672 713.021,573.05C709.895,565.169 706.037,557.147 703.443,549.107L703.177,548.259L666.671,562.732L651.464,526.961Z" style="fill:rgb(35,132,218);fill-rule:nonzero;"/>
    <path d="M716.027,581.794L792.101,555.774L794.182,562.515C776.136,570.197 757.312,575.841 738.804,582.287C732.439,584.504 724.851,586.236 718.958,589.413C718.218,586.986 717.689,583.066 715.46,581.856L716.027,581.794Z" style="fill:rgb(5,64,153);fill-rule:nonzero;"/>
    <path d="M667.245,752.708C676.763,751.998 685.26,754.699 693,760.083L693.739,760.592C702.553,766.823 709.539,777.949 711.238,788.607C713.234,801.127 710.042,812.048 702.569,822.103C695.064,832.202 684.602,836.612 672.516,838.471C660.965,838.62 650.562,835.973 641.609,828.298C632.9,820.833 627.551,810.361 626.657,798.921C625.75,787.327 629.559,775.618 637.153,766.824C644.943,757.804 655.579,753.565 667.245,752.708Z" style="fill:rgb(35,132,218);fill-rule:nonzero;"/>
    <path d="M667.13,763.688C673.656,763.209 680.601,764.746 686.169,768.206C693.186,772.566 698.631,780.15 700.383,788.254C702.183,796.579 701.14,805.525 696.495,812.77C691.148,821.11 683.028,825.473 673.566,827.527L665.25,827.481C657.196,826.574 648.924,821.545 644.041,815.16C638.992,808.558 637.17,799.085 638.31,790.914L638.446,790C639.154,784.981 641.278,779.677 644.413,775.662C650.199,768.254 657.923,764.752 667.13,763.688Z" style="fill:rgb(235,245,244);fill-rule:nonzero;"/>
    <path d="M666.651,771.144C669.708,770.801 673.318,770.725 676.261,771.687L677,771.946C678.242,772.365 679.374,772.795 680.528,773.431C687.277,777.148 691.633,783.178 693.529,790.633C695.032,796.542 694.026,802.783 690.902,808.011C686.712,815.023 680.688,818.354 672.971,820.235C666.917,820.676 661.697,819.949 656.494,816.53C650.711,812.73 646.213,806.296 644.916,799.482C643.737,793.289 645.45,786.679 649.044,781.543C653.441,775.26 659.237,772.378 666.651,771.144Z" style="fill:rgb(10,38,61);fill-rule:nonzero;"/>
    <path d="M667.039,785.562C668.801,785.462 670.658,785.424 672.369,785.924C675.16,786.74 677.262,789.016 678.476,791.583C679.709,794.19 679.887,797.055 678.839,799.759C677.716,802.657 674.765,804.32 672.074,805.467C670.275,805.697 668.155,805.845 666.386,805.418C664.12,804.872 661.994,802.915 660.885,800.929C659.56,798.558 659.113,795.446 659.907,792.83C661.119,788.834 663.467,787.32 667.039,785.562Z" style="fill:rgb(35,132,218);fill-rule:nonzero;"/>
    <path d="M392.143,450.925L452.473,451.222L519.631,451.503L520.427,451.601C525.283,452.164 530.211,451.905 535.091,451.837L555.628,451.643C558.155,451.629 562.54,451.056 564.829,451.844C566.643,452.469 568.733,455.078 569.914,456.56L572.252,460.012C572.916,461.621 573.746,463.289 574.049,465.004L576.005,470.049L645.629,658.332L674.05,647.749C676.36,649.484 678.175,656.046 678.973,658.873L678.014,659.399L650.569,670.512C650.924,672.884 652.076,675.24 652.932,677.48L657.331,689.107L675.783,738.494C671.434,739.794 666.212,738.678 661.677,739.262L649.388,706.726L632.717,662.677L588.512,545.5L567.507,489.308C563.831,479.413 560.956,468.515 556.108,459.186L386.423,459.768C387.754,456.704 389.974,453.452 392.143,450.925Z" style="fill:rgb(35,132,218);fill-rule:nonzero;"/>
    <path d="M164.316,558.013L74.955,485.912L114.945,433.003L119.329,435.896L164.364,471.688L153.799,484.816L160.567,490.289L171.256,476.622L228.323,522.424L187.147,576.225L164.316,558.013Z" style="fill:rgb(149,130,98);fill-rule:nonzero;"/>
    <path d="M299.289,455.858C314.003,465.994 330.758,474.347 347.5,480.581L368.416,487.339C365.59,491.521 361.213,497.466 359.907,502.28L381.504,536.571L415.683,592.27L422.621,604.083C423.685,605.938 425.125,608.039 425.77,610.082C426.74,613.159 425.969,618.58 425.929,621.982L425.023,661.75L422.947,779.604C420.573,777.764 418.588,773.781 416.976,771.223C405.315,752.724 399.671,730.654 394.914,709.537C391.318,693.572 388.257,677.597 386.25,661.347C385.236,653.134 384.84,644.831 387.223,636.794C387.929,634.413 389.174,632.383 389.97,630.095C389.997,630.018 390.209,629.167 390.157,629.053C389.187,626.935 385.448,623.7 383.819,621.782L371,606.027L331.969,555.644C321.457,541.742 310.472,528.028 301.334,513.16C296.752,505.705 291.988,498.107 289.957,489.478C287.068,477.203 293.173,466.017 299.289,455.858Z" style="fill:rgb(0,128,128);fill-rule:nonzero;"/>
    <path d="M359.198,295.65C371.074,291.02 381.33,287.287 394.155,291.356C399.593,293.082 404.608,295.158 410.206,296.446C414.214,304.105 417.139,312.263 421.21,319.909C422.569,322.46 423.867,325.331 425.75,327.516C429.224,327.41 431.071,326.574 433.453,323.983C437.001,320.124 439.567,315.028 442.161,310.507C446.226,314.42 451.188,318.923 451.362,325L451.218,329.355C448.974,349.516 438.382,369.616 429.596,387.699C427.548,391.914 425.121,396.123 423.311,400.433C420.739,404.445 418.722,408.887 416.366,413.042L403.471,434.198C399.894,439.89 396.396,445.707 392.143,450.925C389.974,453.452 387.754,456.704 386.423,459.768L380.881,467.725L373.033,478.897C358.955,475.303 345.437,469.555 332.5,463.002C317.821,455.567 303.606,446.861 291.011,436.232L336.673,348.538L336.385,347.732L301.8,354.971C300.272,352.89 299.372,349.859 298.377,347.469C294.942,339.216 291.986,330.965 289.547,322.365L359.198,295.65Z" style="fill:rgb(111,198,245);fill-rule:nonzero;"/>
    <path d="M336.385,347.732L388.715,333.848L351.008,390.316L335.563,414.329C333.325,417.93 330.679,421.389 328.933,425.267C327.995,427.351 327.82,429.498 328.257,431.75C328.914,435.134 331.471,438.136 333.819,440.521C339.72,446.514 346.883,451.497 354.057,455.86C362.557,461.031 371.324,464.962 380.881,467.725L373.033,478.897C358.955,475.303 345.437,469.555 332.5,463.002C317.821,455.567 303.606,446.861 291.011,436.232L336.673,348.538L336.385,347.732Z" style="fill:rgb(35,132,218);fill-rule:nonzero;"/>
    <path d="M718.958,589.413C724.851,586.236 732.439,584.504 738.804,582.287C757.312,575.841 776.136,570.197 794.182,562.515L812.416,612.899L871.536,592.911L884.671,633.196L887.185,641.093L907.855,702.2L808.45,736.915L718.442,768.099L717.752,765.865C716.495,761.008 714.239,756.369 712.615,751.617L696.281,707.396L693.24,699.505L678.014,659.399L678.973,658.873C678.175,656.046 676.36,649.484 674.05,647.749L674.282,647.278L659.827,609.965L718.958,589.413Z" style="fill:rgb(0,128,128);fill-rule:nonzero;"/>
    <path d="M718.958,589.413C724.851,586.236 732.439,584.504 738.804,582.287C757.312,575.841 776.136,570.197 794.182,562.515L812.416,612.899L768.504,627.503L737.368,638.586C735.498,631.461 732.442,624.645 729.813,617.775L718.958,589.413Z" style="fill:rgb(35,132,218);fill-rule:nonzero;"/>
    <path d="M812.416,612.899L871.536,592.911L884.671,633.196L783.453,668.01C780.941,663.205 779.444,657.426 777.587,652.304L768.504,627.503L812.416,612.899Z" style="fill:rgb(55,202,218);fill-rule:nonzero;"/>
    <path d="M887.185,641.093L907.855,702.2L808.45,736.915C805.427,732.071 803.723,724.889 801.741,719.467L785.973,676.439C789.403,674.651 793.433,673.579 797.068,672.247L821.744,663.569L887.185,641.093Z" style="fill:rgb(55,202,218);fill-rule:nonzero;"/>
    <path d="M67.83,831.69C70.619,832.272 73.603,832.046 76.449,832.052L89.562,832.064L141.183,832.056L335.111,832.047L366.883,832.054C373.847,832.045 382.712,831.001 389.25,833.12L623.902,832.107C627.014,836.251 631.272,840.55 635.5,843.544C647.534,852.063 660.649,856.371 675.525,854.039C689.362,851.869 702.606,844.773 710.978,833.285L711.232,832.925C715.779,832.863 720.739,833.209 725.227,832.61L962.473,832.187C963.341,832.617 964.135,833.06 964.883,833.679C966.523,835.039 967.827,836.883 967.979,839.05C968.172,841.803 967.515,844.779 965.435,846.75C964.823,847.33 963.606,848.409 962.826,848.721C961.036,849.437 956.67,848.975 954.698,848.982L932.261,849.037L814.412,849.335L776.673,849.432C770.975,849.446 764.902,848.997 759.25,849.532C757.46,849.702 755.677,851.299 754.665,852.708C753.382,854.493 752.72,857.231 753.15,859.396C753.655,861.938 755.72,863.992 758.111,864.872C761.806,866.233 767.281,865.506 771.239,865.511L804.051,865.504C807.888,865.499 816.284,864.475 819.14,866.842C820.711,868.145 821.779,870.216 821.911,872.25C822.024,873.986 821.264,875.878 820.134,877.164C818.691,878.806 817.433,879.592 815.288,879.948C813.145,880.305 810.65,880.048 808.458,880.054L794.219,880.071L735.709,879.713L563.345,879.954L505.44,880.008C496.045,880.011 485.936,879.303 476.625,880.151C473.585,880.428 471.655,881.243 469.75,883.688C468.493,885.303 468.239,887.442 468.593,889.424C468.991,891.643 470.519,893.802 472.589,894.75C474.757,895.743 478.074,895.368 480.426,895.374L495.864,895.394C498.154,895.412 500.974,894.999 502.828,896.556C504.16,897.674 504.802,899.561 504.794,901.272C504.786,903.077 504.404,904.844 502.999,906.079C501.533,907.366 500.314,907.504 498.439,907.543L435.697,907.302L351.89,907.45L300.208,907.544C293.104,907.557 284.742,908.436 277.75,907.509C276.005,907.278 273.89,905.67 272.999,904.168C272.309,903.004 272.267,900.982 272.537,899.679C272.822,898.303 274.297,896.449 275.576,895.871C278.064,894.748 284.151,895.488 287.036,895.485L322.636,895.434C328.514,895.421 335.168,896.016 340.961,895.113C342.286,894.906 343.376,894.486 344.457,893.699C346.03,892.555 347.233,890.707 347.442,888.75C347.668,886.635 347.377,884.27 345.96,882.614C344.56,880.977 342.986,879.821 340.835,879.471C336.623,878.785 331.589,879.364 327.295,879.379L297.5,879.401L194.822,879.049L159.382,879.084C153.714,879.09 147.623,879.566 142,879.018C140.411,878.863 138.961,877.444 138.082,876.197C136.896,874.513 136.5,872.32 137.077,870.314C137.676,868.228 139.432,866.409 141.491,865.782C143.195,865.263 145.875,865.584 147.708,865.58L162.61,865.59L220.441,865.451L244.725,865.412C248.411,865.402 254.171,866.096 257.5,864.47C258.914,863.779 260.528,862.032 261.026,860.526C261.678,858.554 261.485,855.8 260.566,853.929C259.601,851.962 257.589,850.079 255.411,849.616C252.156,848.925 247.693,849.442 244.318,849.446L218.408,849.476L115.97,849.05C110.222,849.041 69.281,849.884 66.717,848.58L66,848.077C63.986,846.752 61.677,844.714 61.069,842.25C60.613,840.405 60.799,837.953 61.723,836.266C63.067,833.811 65.228,832.472 67.83,831.69Z" style="fill:rgb(0,128,128);fill-rule:nonzero;"/>
    <path d="M276.535,849.088C278.045,849.01 279.701,848.839 281.2,849.057C283.496,849.391 285.571,851.339 286.785,853.213C288.098,855.24 288.181,858.266 287.483,860.5C286.531,863.545 284.19,865.018 281.516,866.46C280.064,866.626 278.64,866.811 277.202,866.449C274.516,865.774 272.147,864.227 270.801,861.735C269.683,859.666 269.57,857.126 270.335,854.903C271.335,851.998 273.943,850.384 276.535,849.088Z" style="fill:rgb(10,38,61);fill-rule:nonzero;"/>
</svg>
