<?xml version="1.0" encoding="UTF-8" standalone="no"?>
<!DOCTYPE svg PUBLIC "-//W3C//DTD SVG 1.1//EN" "http://www.w3.org/Graphics/SVG/1.1/DTD/svg11.dtd">
<svg width="100%" height="100%" viewBox="0 0 869 869" version="1.1" xmlns="http://www.w3.org/2000/svg" xmlns:xlink="http://www.w3.org/1999/xlink" xml:space="preserve" xmlns:serif="http://www.serif.com/" style="fill-rule:evenodd;clip-rule:evenodd;stroke-linejoin:round;stroke-miterlimit:2;">
    <g transform="matrix(1,0,0,1,-5150.37,-1794.38)">
        <g transform="matrix(4.16667,0,0,4.16667,0,0)">
            <path d="M1426.55,585.175C1426.55,605.011 1410.45,621.11 1390.62,621.11L1290,621.11C1270.16,621.11 1254.06,605.011 1254.06,585.175L1254.06,484.555C1254.06,464.719 1270.16,448.62 1290,448.62L1390.62,448.62C1410.45,448.62 1426.55,464.719 1426.55,484.555L1426.55,585.175ZM1394.21,430.652L1286.4,430.652C1258.63,430.652 1236.09,453.183 1236.09,480.962L1236.09,588.768C1236.09,616.546 1258.63,639.078 1286.4,639.078L1394.21,639.078C1421.99,639.078 1444.52,616.546 1444.52,588.768L1444.52,480.962C1444.52,453.183 1421.99,430.652 1394.21,430.652Z" style="fill:white;fill-rule:nonzero;"/>
        </g>
        <g transform="matrix(4.16667,0,0,4.16667,0,0)">
            <path d="M1340.41,570.801C1320.61,570.801 1304.47,554.666 1304.47,534.865C1304.47,515.064 1320.61,498.929 1340.41,498.929C1360.21,498.929 1376.35,515.064 1376.35,534.865C1376.35,554.666 1360.21,570.801 1340.41,570.801ZM1340.41,480.962C1310.65,480.962 1286.51,505.11 1286.51,534.865C1286.51,564.62 1310.65,588.768 1340.41,588.768C1370.16,588.768 1394.31,564.62 1394.31,534.865C1394.31,505.11 1370.16,480.962 1340.41,480.962Z" style="fill:white;fill-rule:nonzero;"/>
        </g>
        <g transform="matrix(4.16667,0,0,4.16667,0,0)">
            <path d="M1397.91,488.149C1391.96,488.149 1387.13,483.313 1387.13,477.368C1387.13,471.424 1391.96,466.587 1397.91,466.587C1403.85,466.587 1408.69,471.424 1408.69,477.368C1408.69,483.313 1403.85,488.149 1397.91,488.149Z" style="fill:white;fill-rule:nonzero;"/>
        </g>
    </g>
</svg>
