<?xml version="1.0" encoding="UTF-8" standalone="no"?>
<!DOCTYPE svg PUBLIC "-//W3C//DTD SVG 1.1//EN" "http://www.w3.org/Graphics/SVG/1.1/DTD/svg11.dtd">
<svg width="100%" height="100%" viewBox="0 0 800 818" version="1.1" xmlns="http://www.w3.org/2000/svg" xmlns:xlink="http://www.w3.org/1999/xlink" xml:space="preserve" xmlns:serif="http://www.serif.com/" style="fill-rule:evenodd;clip-rule:evenodd;stroke-linejoin:round;stroke-miterlimit:2;">
    <g transform="matrix(1,0,0,1,-5184.79,-4148.78)">
        <g transform="matrix(4.16667,0,0,4.16667,0,0)">
            <path d="M1295.53,1021.3C1295.53,1035.43 1284.07,1046.88 1269.94,1046.88C1255.81,1046.88 1244.35,1035.43 1244.35,1021.3C1244.35,1007.16 1255.81,995.706 1269.94,995.706C1284.07,995.706 1295.53,1007.16 1295.53,1021.3Z" style="fill:white;fill-rule:nonzero;"/>
        </g>
        <g transform="matrix(4.16667,0,0,4.16667,0,0)">
            <path d="M1289.36,1191.89L1250.52,1191.89C1249.47,1191.89 1248.61,1191.03 1248.61,1189.98L1248.61,1065.85C1248.61,1064.8 1249.47,1063.94 1250.52,1063.94L1289.36,1063.94C1290.41,1063.94 1291.26,1064.8 1291.26,1065.85L1291.26,1189.98C1291.26,1191.03 1290.41,1191.89 1289.36,1191.89Z" style="fill:white;fill-rule:nonzero;"/>
        </g>
        <g transform="matrix(4.16667,0,0,4.16667,0,0)">
            <path d="M1436.27,1110.86L1436.27,1183.36C1436.27,1188.05 1432.43,1191.89 1427.74,1191.89L1402.15,1191.89C1397.46,1191.89 1393.62,1188.05 1393.62,1183.36L1393.62,1123.65C1393.62,1111.88 1384.07,1102.33 1372.29,1102.33C1360.52,1102.33 1350.97,1111.88 1350.97,1123.65L1350.97,1183.36C1350.97,1188.05 1347.13,1191.89 1342.44,1191.89L1316.85,1191.89C1312.16,1191.89 1308.32,1188.05 1308.32,1183.36L1308.32,1072.47C1308.32,1067.78 1312.16,1063.94 1316.85,1063.94L1342.44,1063.94C1347.13,1063.94 1350.97,1067.78 1350.97,1072.47L1350.97,1077.93C1359.5,1066.89 1373.62,1059.68 1389.35,1059.68C1412.9,1059.68 1436.27,1076.74 1436.27,1110.86Z" style="fill:white;fill-rule:nonzero;"/>
        </g>
    </g>
</svg>
