<?xml version="1.0" encoding="UTF-8"?>
<svg xmlns="http://www.w3.org/2000/svg" xmlns:xlink="http://www.w3.org/1999/xlink" version="1.1" id="Capa_1" x="0px" y="0px" viewBox="0 0 512 512" style="enable-background:new 0 0 512 512;" xml:space="preserve" width="512" height="512">
<g>
	<path style="fill:none;stroke:#000000;stroke-width:20;stroke-linecap:round;stroke-linejoin:round;stroke-miterlimit:10;" d="&#10;&#9;&#9;M101.512,353.536c18.94,60.762,75.719,104.995,142.635,104.995c60.252,0,112.281-35.864,135.873-87.363h-50.739&#10;&#9;&#9;c-19.179,26.264-50.195,43.363-85.134,43.363c-58.097,0-105.361-47.265-105.361-105.361c0-47.044,30.992-86.986,73.631-100.481"/>
	<path style="fill:none;stroke:#000000;stroke-width:20;stroke-linecap:round;stroke-linejoin:round;stroke-miterlimit:10;" d="&#10;&#9;&#9;M206.863,164.517c-50.028,12.902-89.985,51.141-105.312,100.158"/>
	
		<polyline style="fill:none;stroke:#000000;stroke-width:20;stroke-linecap:round;stroke-linejoin:round;stroke-miterlimit:10;" points="&#10;&#9;&#9;223.616,145.182 189.346,84.01 276.793,35.019 386.395,230.656 298.948,279.647 265.078,219.191 &#9;"/>
	
		<rect x="197.251" y="21.056" transform="matrix(0.8724 -0.4888 0.4888 0.8724 8.651 115.2545)" style="fill:none;stroke:#000000;stroke-width:20;stroke-linecap:round;stroke-linejoin:round;stroke-miterlimit:10;" width="55.684" height="40"/>
	
		<rect x="324.632" y="252.648" transform="matrix(0.8724 -0.4888 0.4888 0.8724 -88.2904 207.0602)" style="fill:none;stroke:#000000;stroke-width:20;stroke-linecap:round;stroke-linejoin:round;stroke-miterlimit:10;" width="55.684" height="40"/>
	
		<circle style="fill:none;stroke:#000000;stroke-width:20;stroke-linecap:round;stroke-linejoin:round;stroke-miterlimit:10;" cx="244.147" cy="181.829" r="40.668"/>
	
		<line style="fill:none;stroke:#000000;stroke-width:20;stroke-linecap:round;stroke-linejoin:round;stroke-miterlimit:10;" x1="196.531" y1="454.668" x2="168.383" y2="502"/>
	
		<line style="fill:none;stroke:#000000;stroke-width:20;stroke-linecap:round;stroke-linejoin:round;stroke-miterlimit:10;" x1="291.762" y1="454.668" x2="319.91" y2="502"/>
	
		<line style="fill:none;stroke:#000000;stroke-width:20;stroke-linecap:round;stroke-linejoin:round;stroke-miterlimit:10;" x1="111.647" y1="502" x2="376.647" y2="502"/>
	
		<line style="fill:none;stroke:#000000;stroke-width:20;stroke-linecap:round;stroke-linejoin:round;stroke-miterlimit:10;" x1="297.71" y1="371.167" x2="417.215" y2="371.167"/>
	
		<line style="fill:none;stroke:#000000;stroke-width:20;stroke-linecap:round;stroke-linejoin:round;stroke-miterlimit:10;" x1="94.785" y1="309.169" x2="94.785" y2="309.169"/>
</g>















</svg>
