<?xml version="1.0" encoding="UTF-8" standalone="no"?>
<!DOCTYPE svg PUBLIC "-//W3C//DTD SVG 1.1//EN" "http://www.w3.org/Graphics/SVG/1.1/DTD/svg11.dtd">
<svg width="100%" height="100%" viewBox="0 0 1024 1024" version="1.1" xmlns="http://www.w3.org/2000/svg" xmlns:xlink="http://www.w3.org/1999/xlink" xml:space="preserve" xmlns:serif="http://www.serif.com/" style="fill-rule:evenodd;clip-rule:evenodd;stroke-linejoin:round;stroke-miterlimit:2;">
    <path d="M1,1024L0.484,1023.77C-0.821,1021.7 0,1014.32 0,1011.4L-0,-0L1024,0L1024,1023.5C1022.14,1024.34 1019.87,1024.03 1017.87,1024.03L800.006,1024.03L1,1024Z" style="fill:rgb(10,38,61);fill-rule:nonzero;"/>
    <path d="M470.905,576.783L479.839,579.879L470.922,591.305C469.821,586.974 470.724,581.273 470.905,576.783Z" style="fill:rgb(0,128,128);fill-rule:nonzero;"/>
    <path d="M330.399,471.01C330.805,475.06 328.213,480.564 326.894,484.482L326.064,485.173C325.082,486.443 324.696,487.379 323.145,487.879L319.555,486.62C318.151,486.532 317.69,486.042 316.651,485.182C320.491,479.958 325.64,475.385 330.399,471.01Z" style="fill:rgb(154,248,254);fill-rule:nonzero;"/>
    <path d="M453.194,543.001L456.099,544.04C457.336,544.943 458.193,546.155 458.367,547.741L458.362,548.511C455.115,555.911 450.6,564.13 442.62,567.173C440.378,568.029 438.16,568.164 435.786,568.176C443.876,561.092 448.557,552.525 453.194,543.001Z" style="fill:rgb(35,132,218);fill-rule:nonzero;"/>
    <path d="M313.978,489.121L315.723,487.736L324.004,489.308L315.842,513.018L314.145,513.678C310.177,514.767 306.135,515.455 302.089,516.188C299.643,516.631 296.981,517.337 294.504,517.336C299.954,507.263 306.728,497.952 313.978,489.121Z" style="fill:rgb(139,218,244);fill-rule:nonzero;"/>
    <path d="M554.322,529.794L542.032,526.764L542.25,526.493L556.174,528.855C573.75,533.123 589.973,539.229 606.45,546.618L611.001,548.756L658.924,575.054C672.584,584.026 685.592,593.838 698.081,604.377C704.843,610.082 712.572,616.62 717.916,623.66C711.759,619.401 706.654,613.037 700.789,608.217C686.721,596.656 671.879,586.302 656.516,576.543L606.104,549.361L602.789,547.98L554.322,529.794Z" style="fill:rgb(20,192,247);fill-rule:nonzero;"/>
    <path d="M682.92,445.986C694.822,444.819 706.535,444.67 718.48,444.97C749.293,445.744 780.742,451.222 807.253,467.8C805.687,467.958 800.179,464.506 798.423,463.685C790.265,459.865 782.082,456.305 773.359,453.939C745.755,446.453 714.899,444.574 686.487,447.169L672.103,448.736C670.936,448.905 669.07,448.95 668.01,449.369L667.263,449.424C647.022,451.424 628.493,457.669 608.859,462.247L582.543,470.6L557.178,478.691C550.725,480.911 543.373,484.142 536.677,485.271C537.327,484.861 537.922,484.5 538.642,484.222L585.932,467.174C592.32,465.022 599.176,462.235 605.81,461.117C610.848,459.164 616.342,457.975 621.563,456.573C636.902,452.453 652.234,449.366 668.032,447.621L672.648,447.03C676.078,447.053 679.526,446.439 682.92,445.986Z" style="fill:url(#_Linear1);fill-rule:nonzero;"/>
    <path d="M568.078,511.174L578.141,512.26L617,519.835C621.424,520.88 626.03,521.667 630.363,523.049C651.651,528.809 672.386,536.725 691.975,546.847C692.819,547.325 695.586,548.571 696.072,549.252L722.276,564.811C730.058,570.288 737.871,575.701 745.143,581.854C748.273,584.504 751.812,587.274 754.35,590.5C753.111,590.462 751.108,588.28 750.099,587.405L740.386,579.446C735.238,575.565 729.531,571.262 723.762,568.357L693.955,550.73L689.395,548.534C671.965,539.382 653.304,533.193 634.664,527.058L627.292,524.885L565.253,512.429C563.41,512.192 561.715,512.024 560,511.28C562.593,510.872 565.446,511.144 568.078,511.174Z" style="fill:url(#_Linear2);fill-rule:nonzero;"/>
    <path d="M250.642,436.145C241.746,436.105 232.707,434.778 223.75,434.604C196.661,434.077 170.062,436.692 143.457,441.698L143,441.786L143.114,441.25L144.25,441.215C144.9,441.053 145.231,440.727 145.993,440.588L169.5,436.063C191.436,432.628 213.835,431.298 236.015,432.499C242.163,432.832 248.613,432.924 254.68,433.951C278.124,435.404 302.798,440.773 324.926,448.56C328.51,449.821 332.996,451.047 336.218,453.077L336.478,453.57L337.596,457.507C317.068,448.749 295.558,442.699 273.516,439.152L250.642,436.145Z" style="fill:url(#_Linear3);fill-rule:nonzero;"/>
    <path d="M717.158,150.121C724.682,149.665 731.158,150.66 738.414,152.689L738.597,153.186C740.457,157.693 746.645,162.317 750.017,165.912C753.135,169.238 755.913,172.648 758.576,176.344C746.531,171.75 734.503,166.609 721.669,164.788C718.909,164.397 716.134,164.448 713.353,164.457C713.84,164.094 714.354,163.806 714.878,163.5L717.158,150.121Z" style="fill:rgb(8,58,129);fill-rule:nonzero;"/>
    <path d="M470.922,591.305L465.107,598.455C452.843,590.56 439.958,584.098 428.854,574.476C433.418,575.266 438.11,576.109 442.75,575.468C447.923,574.754 453.223,571.974 458.071,570.053L470.905,576.783C470.724,581.273 469.821,586.974 470.922,591.305Z" style="fill:rgb(35,132,218);fill-rule:nonzero;"/>
    <path d="M314.145,513.678L315.297,514.25L314.912,517.326L314.325,517.594C308.779,518.671 303.201,520.472 297.69,521.825C295.695,522.315 292.69,522.479 291.023,523.617L289.949,525.083L289.519,525.072C287.477,525.198 284.956,526.453 283.015,527.152L264.37,534.42C221.23,552.62 181.103,581.245 148.56,614.749L123.855,642.75L123.282,642.75C135.662,626.785 148.613,611.644 163.286,597.706C191.388,571.013 225.582,547.943 260.918,532.056C269.375,528.253 278.04,524.389 286.915,521.676C290.158,520.434 292.324,520.083 294.504,517.336C296.981,517.337 299.643,516.631 302.089,516.188C306.135,515.455 310.177,514.767 314.145,513.678Z" style="fill:url(#_Linear4);fill-rule:nonzero;"/>
    <path d="M268.161,486.486L301.664,484.955C306.632,484.935 311.702,484.752 316.651,485.182C317.69,486.042 318.151,486.532 319.555,486.62L323.145,487.879L324.36,488.925L324.004,489.308L315.723,487.736L313.978,489.121C309.408,488.626 304.474,488.904 299.855,488.877L268.88,489.716C264.266,490.733 259.053,490.584 254.32,491.132C241.658,492.596 228.915,494.26 216.436,496.892C176.907,505.227 138.738,520.089 104.157,540.971L85.833,552.91C82.355,555.345 78.944,558.321 75.25,560.38L75.527,559.75C76.202,558.73 78.473,557.429 79.5,556.642L96.66,544.548C131.352,521.686 168.451,505.778 208.75,495.815C228.017,491.052 248.32,487.521 268.161,486.486Z" style="fill:rgb(20,192,247);fill-rule:nonzero;"/>
    <path d="M581.914,490.24C607.91,485.799 635.483,485.559 661.782,485.908L698.064,489.18L731.754,495.361L765.568,503.758C790.533,511.057 814.079,522.882 835.591,537.378C842.716,542.18 852.151,548.423 857.481,555.19C851.27,550.757 845.644,545.577 839.328,541.209C817.122,525.85 791.665,514.026 765.75,506.502L733.844,498.75L698.263,491.964C693.668,490.961 688.694,490.646 684.003,490.169L654.694,488.391L578.66,492.698L578.623,492.744L574.151,493.262L551.5,496.353C550.452,496.59 549.669,496.744 548.571,496.774L548.849,496.398L581.914,490.24Z" style="fill:rgb(20,192,247);fill-rule:nonzero;"/>
    <path d="M760.729,559.706C772.353,595.601 778.587,633.767 780.564,671.396C780.932,678.412 781.732,685.91 781.241,692.919C780.874,698.173 779.505,703.593 778.399,708.729C776.292,718.502 773.811,729.177 769.787,738.347C767.792,745.267 764.532,751.905 761.35,758.352C749.785,781.779 734.284,802.604 715.37,820.603C711.575,824.215 707.326,828.602 702.915,831.425L702.368,831.255C705.529,828.695 708.491,825.475 711.439,822.636C723.029,811.471 733.466,799.011 742.712,785.849C751.826,772.895 759.835,757.94 765.657,743.218L772.608,722.882C772.566,721.119 773.593,718.546 774.021,716.793C775.678,709.997 777.603,702.827 777.32,695.79C777.516,666.034 774.852,635.152 769.893,605.796L762.856,572C762.233,569.087 759.799,562.299 760.729,559.706Z" style="fill:rgb(20,192,247);fill-rule:nonzero;"/>
    <path d="M326.064,485.173L326.894,484.482C329.619,486.348 336.647,485.975 340.159,486.267L352.135,487.657L352.544,487.873C352.633,490.002 353.511,490.18 354.087,491.96C357.287,496.629 361.163,501.498 363.624,506.578L363.941,506.693C364.218,508.1 364.937,509.133 365.147,510.523L364.94,510.88L348.458,512.42L334,514.337C331.892,514.632 329.365,514.702 327.357,515.375L326.918,515.334L314.912,517.326L315.297,514.25L314.145,513.678L315.842,513.018L324.004,489.308L324.36,488.925L323.145,487.879C324.696,487.379 325.082,486.443 326.064,485.173Z" style="fill:rgb(35,132,218);fill-rule:nonzero;"/>
    <path d="M326.064,485.173L326.894,484.482C329.619,486.348 336.647,485.975 340.159,486.267L352.135,487.657L352.544,487.873C352.633,490.002 353.511,490.18 354.087,491.96L342.189,490.864L327.873,489.777L324.36,488.925L323.145,487.879C324.696,487.379 325.082,486.443 326.064,485.173Z" style="fill:rgb(111,254,255);fill-rule:nonzero;"/>
    <path d="M324.36,488.925L327.873,489.777L326.626,490.069C325.943,496.622 326.213,504.355 327.078,510.891L326.183,511.192L315.842,513.018L324.004,489.308L324.36,488.925Z" style="fill:rgb(82,201,243);fill-rule:nonzero;"/>
    <path d="M363.624,506.578L363.941,506.693C364.218,508.1 364.937,509.133 365.147,510.523L364.94,510.88L348.458,512.42L334,514.337C331.892,514.632 329.365,514.702 327.357,515.375L326.918,515.334L314.912,517.326L315.297,514.25L314.145,513.678L315.842,513.018L326.183,511.192L327.078,510.891L346.786,508.216L363.624,506.578Z" style="fill:rgb(111,254,255);fill-rule:nonzero;"/>
    <path d="M342.189,490.864L354.087,491.96C357.287,496.629 361.163,501.498 363.624,506.578L346.786,508.216C345.841,502.425 343.694,496.56 342.189,490.864Z" style="fill:rgb(8,58,129);fill-rule:nonzero;"/>
    <path d="M636.743,848.892C641.27,849.021 645.518,849.285 649.967,850.119C658.551,849.594 667.802,851.43 676.046,853.807C686.488,857.052 699.547,861.728 704.977,872L706.619,875.59L644.404,874.959L636.924,875.087C638.091,867.052 637.202,859.38 635.928,851.439L636.743,848.892Z" style="fill:rgb(140,82,54);fill-rule:nonzero;"/>
    <path d="M636.743,848.892C641.27,849.021 645.518,849.285 649.967,850.119C654.852,852.696 663.382,856.697 665.679,861.934C665.616,863.539 664.83,864.073 663.634,865.146C659.019,869.288 650.392,873.367 644.404,874.959L636.924,875.087C638.091,867.052 637.202,859.38 635.928,851.439L636.743,848.892Z" style="fill:rgb(223,137,77);fill-rule:nonzero;"/>
    <path d="M623.811,848.657L636.743,848.892L635.928,851.439C637.202,859.38 638.091,867.052 636.924,875.087L614.101,874.899L592.928,874.987L576.86,874.78C575.194,875.175 572.861,874.91 571.105,874.915C567.722,874.925 559.059,875.859 556.376,874.29C561.836,865.02 569.721,859.673 579.588,855.946C590.121,852.5 602.082,849.809 613.159,849.445C616.514,848.743 620.371,848.852 623.811,848.657Z" style="fill:rgb(239,195,144);fill-rule:nonzero;"/>
    <path d="M576.86,874.78C587.65,865.151 598.284,856.718 611.772,851.203L611.188,851.736C609.134,853.588 606.879,855.091 604.918,857.079C599.948,862.119 595.805,868.535 592.928,874.987L576.86,874.78Z" style="fill:rgb(140,82,54);fill-rule:nonzero;"/>
    <path d="M635.928,851.439C637.202,859.38 638.091,867.052 636.924,875.087L614.101,874.899C616.323,873.206 619.033,872.105 621.33,870.455C627.882,865.75 632.219,858.422 635.928,851.439Z" style="fill:rgb(140,82,54);fill-rule:nonzero;"/>
    <path d="M455.778,483.371C460.087,483.758 464.191,484.496 468.318,485.808C474.191,488.246 478.894,491.363 483.009,496.26C485.537,500.244 486.606,503.516 487.629,508.123C479.687,510.351 470.836,513.133 465.233,519.623C464.08,520.958 462.063,524.477 460.708,525.234C459.905,525.683 458.173,525.904 457.25,526.106C451.728,527.314 442.897,527.287 437.82,524.443C434.878,522.795 432.784,520.519 431.706,517.321C430.098,515.205 429.021,513.48 428.196,510.899L427.67,508.483L427.191,507.921L427.162,505.929L427.858,500.393L428.155,499.038L428.338,499.018L429.581,495.469C433.432,490.457 438.621,486.648 444.635,484.674L445.5,484.402C448.948,483.294 452.191,483.365 455.778,483.371Z" style="fill:url(#_Linear5);fill-rule:nonzero;"/>
    <path d="M428.196,510.899C432,514.362 434.95,516.209 439.87,517.909C439.43,519.006 438.462,518.016 437.266,518.531C437.739,519.072 437.977,519.273 438.668,519.548L439.245,519.75L439.745,521.25L440.497,521.663L440,521.85C436.604,521.126 435.458,519.107 432.618,517.745L431.706,517.321C430.098,515.205 429.021,513.48 428.196,510.899Z" style="fill:rgb(223,137,77);fill-rule:nonzero;"/>
    <path d="M428.338,499.018L429.256,499.214C433.59,492.011 439.993,487.269 448.259,485.316C450.678,484.744 453.644,484.983 456.137,484.947L455.862,499.428C455.768,504.248 456.494,511.146 452.653,514.722C449.206,517.931 444.315,518.178 439.87,517.909C434.95,516.209 432,514.362 428.196,510.899L427.67,508.483L427.191,507.921L427.162,505.929L427.858,500.393L428.155,499.038L428.338,499.018Z" style="fill:rgb(239,195,144);fill-rule:nonzero;"/>
    <path d="M365.147,510.523L383.456,509.431L387.382,509.75L398.675,524.771C393.478,526.92 387.365,530.294 381.995,531.512L381.782,531.926C382.18,533.194 382.167,533.816 383.224,534.701C378.605,537.767 371.896,540.29 366.702,542.276L364.059,543.474L353.043,548.675L353.121,547.95L352.5,547.878C351.862,548.353 351.212,548.651 350.5,549L349.527,548L342.269,552.227C335.389,540.897 329.918,528.445 327.357,515.375C329.365,514.702 331.892,514.632 334,514.337L348.458,512.42L364.94,510.88L365.147,510.523Z" style="fill:rgb(8,58,129);fill-rule:nonzero;"/>
    <path d="M363.543,540.431L381.782,531.926C382.18,533.194 382.167,533.816 383.224,534.701C378.605,537.767 371.896,540.29 366.702,542.276L364.059,543.474L353.043,548.675L353.121,547.95L352.5,547.878C351.862,548.353 351.212,548.651 350.5,549L349.527,548L361.573,541.612L363.543,540.431Z" style="fill:rgb(111,254,255);fill-rule:nonzero;"/>
    <path d="M365.147,510.523L383.456,509.431L387.382,509.75L398.675,524.771C393.478,526.92 387.365,530.294 381.995,531.512L381.661,530.865C380.309,528.594 368.131,512.012 366.75,511.285C366.203,510.996 365.543,511.015 364.94,510.88L365.147,510.523Z" style="fill:rgb(20,192,247);fill-rule:nonzero;"/>
    <path d="M327.357,515.375C329.365,514.702 331.892,514.632 334,514.337L348.458,512.42C351.727,519.611 354.668,526.607 358.806,533.385C360.195,535.66 361.75,538.462 363.543,540.431L361.573,541.612L349.527,548L342.269,552.227C335.389,540.897 329.918,528.445 327.357,515.375Z" style="fill:rgb(35,132,218);fill-rule:nonzero;"/>
    <path d="M428.813,515.376L429.049,517.156C430.653,519.691 431.885,522.414 433.643,524.852C438.965,532.228 445.714,537.934 453.194,543.001C448.557,552.525 443.876,561.092 435.786,568.176L432.929,567.944C412.555,565.562 396.597,549.819 384.463,534.505L383.224,534.701C382.167,533.816 382.18,533.194 381.782,531.926L381.995,531.512C387.365,530.294 393.478,526.92 398.675,524.771C408.364,521.178 418.616,517.134 428.813,515.376Z" style="fill:rgb(20,192,247);fill-rule:nonzero;"/>
    <path d="M428.813,515.376L429.049,517.156L398.295,528.405C393.847,530.135 388.323,531.7 384.463,534.505L383.224,534.701C382.167,533.816 382.18,533.194 381.782,531.926L381.995,531.512C387.365,530.294 393.478,526.92 398.675,524.771C408.364,521.178 418.616,517.134 428.813,515.376Z" style="fill:rgb(154,248,254);fill-rule:nonzero;"/>
    <path d="M608.482,278.642L610.5,278.511C627.391,276.644 631.646,256.251 634.788,242.778C636.475,235.543 638.015,228.247 640.339,221.18C644.998,207.01 651.453,193.616 660.728,181.871C671.559,168.152 683.619,157.433 700.877,152.809C706.236,151.373 711.664,150.762 717.158,150.121L714.878,163.5C714.354,163.806 713.84,164.094 713.353,164.457C701.186,165.169 691.089,170.425 683.021,179.5C675.472,187.992 669.947,197.768 666.193,208.466C655.94,237.679 657.19,272.49 626.679,289.764C620.214,286.824 614.724,281.987 608.482,278.642Z" style="fill:rgb(0,128,128);fill-rule:nonzero;"/>
    <path d="M336.478,453.57C341.529,454.982 346.242,458.656 351,460.974C372.43,471.412 393.517,482.306 415.75,490.968C420.026,492.634 424.989,495.217 429.581,495.469L428.338,499.018L428.155,499.038L427.858,500.393L427.162,505.929L427.191,507.921L427.67,508.483C427.6,510.756 427.958,513.255 428.813,515.376C418.616,517.134 408.364,521.178 398.675,524.771L387.382,509.75L383.456,509.431L365.147,510.523C364.937,509.133 364.218,508.1 363.941,506.693L363.624,506.578C361.163,501.498 357.287,496.629 354.087,491.96C353.511,490.18 352.633,490.002 352.544,487.873L352.135,487.657L340.159,486.267C336.647,485.975 329.619,486.348 326.894,484.482C328.213,480.564 330.805,475.06 330.399,471.01L332.893,468.095C333.365,465.875 337.484,462.092 339.038,460.426C338.689,459.38 338.136,458.463 337.596,457.507L336.478,453.57Z" style="fill:rgb(20,192,247);fill-rule:nonzero;"/>
    <path d="M352.544,487.873L404.35,495.084L420.247,497.303C422.905,497.738 425.668,497.959 428.155,499.038L427.858,500.393C407.823,500.277 387.808,495.161 367.855,493.407L354.087,491.96C353.511,490.18 352.633,490.002 352.544,487.873Z" style="fill:rgb(154,248,254);fill-rule:nonzero;"/>
    <path d="M339.038,460.426L352.135,487.657L340.159,486.267C336.647,485.975 329.619,486.348 326.894,484.482C328.213,480.564 330.805,475.06 330.399,471.01L332.893,468.095C333.365,465.875 337.484,462.092 339.038,460.426Z" style="fill:rgb(8,58,129);fill-rule:nonzero;"/>
    <path d="M332.893,468.095C335.314,470.091 335.497,472.314 336.426,475.08L340.159,486.267C336.647,485.975 329.619,486.348 326.894,484.482C328.213,480.564 330.805,475.06 330.399,471.01L332.893,468.095Z" style="fill:rgb(35,132,218);fill-rule:nonzero;"/>
    <path d="M354.087,491.96L367.855,493.407C387.808,495.161 407.823,500.277 427.858,500.393L427.162,505.929L427.191,507.921L427.67,508.483C427.6,510.756 427.958,513.255 428.813,515.376C418.616,517.134 408.364,521.178 398.675,524.771L387.382,509.75L383.456,509.431L365.147,510.523C364.937,509.133 364.218,508.1 363.941,506.693L363.624,506.578C361.163,501.498 357.287,496.629 354.087,491.96Z" style="fill:rgb(20,192,247);fill-rule:nonzero;"/>
    <path d="M384.05,505.852L427.162,505.929L427.191,507.921C423.511,508.627 419.632,508.411 415.896,508.425L392.938,508.711C389.846,508.861 386.493,508.82 383.456,509.431L365.147,510.523C364.937,509.133 364.218,508.1 363.941,506.693L384.05,505.852Z" style="fill:rgb(154,248,254);fill-rule:nonzero;"/>
    <path d="M427.191,507.921L427.67,508.483C427.6,510.756 427.958,513.255 428.813,515.376C418.616,517.134 408.364,521.178 398.675,524.771L387.382,509.75L383.456,509.431C386.493,508.82 389.846,508.861 392.938,508.711L415.896,508.425C419.632,508.411 423.511,508.627 427.191,507.921Z" style="fill:rgb(82,201,243);fill-rule:nonzero;"/>
    <path d="M366.702,542.276C366.725,542.924 366.58,543.6 366.771,544.219C367.218,545.665 375.129,553.761 376.702,555.226C382.302,560.442 388.935,564.391 395.34,568.513L416,582.457L470.449,625.081L511.461,660.16L511.857,661.447C510.883,675.204 511.941,689.201 511.48,703C511.381,705.98 511.633,709.353 511.078,712.259C510.988,710.696 511.643,704.876 511.093,703.726C510.283,702.031 499.742,694.303 497.832,692.726L472.126,670.834L422.267,627.088C402.174,609.657 381.373,592.581 362.57,573.753L344.009,553.378L353.043,548.675L364.059,543.474L366.702,542.276Z" style="fill:rgb(0,128,128);fill-rule:nonzero;"/>
    <path d="M326.918,515.334L327.357,515.375C329.918,528.445 335.389,540.897 342.269,552.227L315.357,568.707L316.285,569.418C313.54,571.228 309.51,573.332 307.435,575.85C307.69,601.528 310.547,626.482 315.425,651.694C316.635,657.943 317.598,664.723 319.401,670.798L278.266,650.245C267.061,660.399 257.722,672.378 253.398,687.078C252.106,691.472 251.721,696.506 250.068,700.706C246.995,672.877 249.528,645.51 255.349,618.195C262.246,585.829 273.939,554.076 289.949,525.083L291.023,523.617C292.69,522.479 295.695,522.315 297.69,521.825C303.201,520.472 308.779,518.671 314.325,517.594L314.912,517.326L326.918,515.334Z" style="fill:rgb(139,218,244);fill-rule:nonzero;"/>
    <path d="M326.918,515.334L327.357,515.375C329.918,528.445 335.389,540.897 342.269,552.227L315.357,568.707L307.454,573.965C307.487,554.663 310.481,536.434 314.325,517.594L314.912,517.326L326.918,515.334Z" style="fill:rgb(82,201,243);fill-rule:nonzero;"/>
    <path d="M222.837,219.396L223.224,219.733C234.281,198.368 245.223,176.769 267.418,164.75C280.028,157.922 293.709,156.009 307.575,160.221C320.281,164.081 334.464,173.362 340.99,185.274C327.186,175.846 310.496,171.985 294.008,175.181C276.625,178.55 262.141,187.569 252.259,202.406C250.292,205.361 248.37,208.468 247.028,211.762C235.986,234.356 233.992,264.431 242.05,288.261C248.354,306.902 260.356,322.224 276.34,333.551C281.124,336.941 286.206,339.632 291.144,342.748L309.085,351.462C319.197,355.961 330.855,358.724 341.92,359.182C345.823,359.766 349.917,359.625 353.863,359.695L339.325,396.359C339.127,396.108 339.012,395.761 338.732,395.608C337.61,394.995 333.673,395.029 332.18,394.756C327.82,393.961 323.522,392.836 319.281,391.556C312.173,389.41 305.195,386.035 298.532,382.772C292.565,379.85 286.258,376.821 281.022,372.693C272.151,366.994 263.682,361.059 256.041,353.736C240.279,338.63 228.965,318.445 222.65,297.644C216.244,276.545 214.915,252.626 219.461,231C220.245,227.271 221.033,222.753 222.837,219.396Z" style="fill:rgb(35,132,218);fill-rule:nonzero;"/>
    <path d="M291.144,342.748L309.085,351.462C319.197,355.961 330.855,358.724 341.92,359.182C345.823,359.766 349.917,359.625 353.863,359.695L339.325,396.359C339.127,396.108 339.012,395.761 338.732,395.608C337.61,394.995 333.673,395.029 332.18,394.756C327.82,393.961 323.522,392.836 319.281,391.556C312.173,389.41 305.195,386.035 298.532,382.772C292.565,379.85 286.258,376.821 281.022,372.693C284.802,373.213 288.032,375.28 291.503,376.762C300.446,380.579 312.413,384.825 322.275,383.736C324.841,383.453 325.949,383.024 327.622,381.021C328.141,379.009 327.823,377.094 327.046,375.172C325.813,372.124 323.538,369.784 321.263,367.491C315.426,361.609 308.472,356.387 301.677,351.644C298.835,349.659 292.969,346.424 291.419,343.36L291.144,342.748Z" style="fill:rgb(8,58,129);fill-rule:nonzero;"/>
    <path d="M222.837,219.396C230.069,193.528 248.293,168.33 271.8,155.012C281.564,149.48 292.071,145.818 303.186,144.319C308.818,143.56 315.37,143.641 321,144.371C361.115,149.578 391.755,184.436 415.398,214.5L419.731,220.278C423.581,223.763 426.897,229.006 430.318,232.969C436.303,239.903 442.99,246.3 449.866,252.343C432.337,258.203 416.623,264.171 403.886,278.203C399.166,283.404 395.222,289.096 390.871,294.581C390.212,294.369 390.468,294.423 389.844,294.32C383.395,293.262 378.816,290.151 374.405,285.426C372.544,283.432 370.91,281.336 368.5,279.978C362.886,265.844 361.499,249.237 358.801,234.37C357.379,232.014 356.872,226.948 356.171,224.127C353.882,214.919 351.274,206.154 347.513,197.422C345.651,193.099 343.892,189.01 340.99,185.274C334.464,173.362 320.281,164.081 307.575,160.221C293.709,156.009 280.028,157.922 267.418,164.75C245.223,176.769 234.281,198.368 223.224,219.733L222.837,219.396Z" style="fill:rgb(82,201,243);fill-rule:nonzero;"/>
    <path d="M358.801,234.37C360.349,237.296 361.256,240.805 362.345,243.94C365.684,253.553 369.253,265.766 376.352,273.328C378.465,275.578 380.291,276.605 383.442,276.588C386.546,276.572 388.881,275.114 390.903,272.827C398.437,264.302 399.292,246.35 398.409,235.717C395.953,206.137 371.723,180.233 350.183,161.906C362.778,168.704 374.894,175.883 385.822,185.215C397.985,195.601 408.276,208.048 418.753,220.068L419.731,220.278C423.581,223.763 426.897,229.006 430.318,232.969C436.303,239.903 442.99,246.3 449.866,252.343C432.337,258.203 416.623,264.171 403.886,278.203C399.166,283.404 395.222,289.096 390.871,294.581C390.212,294.369 390.468,294.423 389.844,294.32C383.395,293.262 378.816,290.151 374.405,285.426C372.544,283.432 370.91,281.336 368.5,279.978C362.886,265.844 361.499,249.237 358.801,234.37Z" style="fill:rgb(0,128,128);fill-rule:nonzero;"/>
    <path d="M683.88,357.957L659.235,358.406C656.811,350.517 654.696,342.626 651.792,334.884C647.48,323.395 642.197,312.575 636.48,301.725C653.815,285 660.183,256.865 665.13,234.098C668.285,219.577 671.315,203.801 680.1,191.511C682.308,188.423 684.911,185.602 687.939,183.296C698.141,175.528 711.186,172.506 723.877,174.268C730.918,175.246 737.164,176.828 743.744,179.583C758.104,185.596 772.938,197.773 778.899,212.468L778.545,212.25C775.989,210.605 773.944,208.306 771.667,206.313C766.253,201.573 759.905,198.43 752.75,197.44L751.847,197.311C747.472,196.746 742.718,197.212 738.465,198.33C733.481,199.639 729.169,201.33 724.608,203.731C707.224,212.883 696.133,230.904 690.602,249.217C689.549,252.704 688.552,256.365 688.202,259.998L688.746,260.413C699.911,269.164 706.424,286.796 707.923,300.414C709.628,315.892 706.38,334.472 696.348,346.803C692.574,351.443 688.125,353.997 683.88,357.957Z" style="fill:rgb(81,53,47);fill-rule:nonzero;"/>
    <path d="M378.425,849.757C381.614,848.863 384.821,848.91 388.106,848.829L404.876,849.011L411.958,849.917C423.034,850.006 433.226,852.468 443.352,856.824C451.43,861.951 457.346,866.93 463.572,874.251C466.406,873.168 472.579,873.882 475.794,873.854L511.26,873.485L544.179,873.342C547.182,873.332 552.573,872.591 555.24,873.501C555.677,873.65 555.998,874.027 556.376,874.29C559.059,875.859 567.722,874.925 571.105,874.915C572.861,874.91 575.194,875.175 576.86,874.78L592.928,874.987L614.101,874.899L636.924,875.087L644.404,874.959L706.619,875.59C710.48,876.222 714.584,875.941 718.491,875.949L737.453,876.021C742.934,876.077 748.322,876.856 753.764,877.024C755.117,876.576 758.283,876.974 759.788,876.972L784.801,877.38L944.75,879.243L944.891,879.75L82.558,879.762L82.535,879.235C106.426,878.584 318.748,870.749 323.896,873.419L324.554,873.792L326.486,869.407C329.501,863.115 336.857,857.665 343.34,855.361L344.71,854.409C355.383,850.382 366.1,849.384 377.448,849.498L378.425,849.757Z" style="fill:rgb(242,137,29);fill-rule:nonzero;"/>
    <path d="M411.958,849.917C423.034,850.006 433.226,852.468 443.352,856.824C451.43,861.951 457.346,866.93 463.572,874.251C454.661,875.313 445.035,874.616 436.039,874.629L421.545,874.531C421.992,866.818 421.27,860.62 416.939,854.102L411.958,849.917Z" style="fill:rgb(168,76,42);fill-rule:nonzero;"/>
    <path d="M416.939,854.102C420.733,854.164 423.353,857.14 425.91,859.75C430.327,864.261 433.288,868.986 436.039,874.629L421.545,874.531C421.992,866.818 421.27,860.62 416.939,854.102Z" style="fill:rgb(140,82,54);fill-rule:nonzero;"/>
    <path d="M378.425,849.757C381.614,848.863 384.821,848.91 388.106,848.829L404.876,849.011L411.958,849.917L416.939,854.102C421.27,860.62 421.992,866.818 421.545,874.531L395.133,874.52L378.987,874.559L349.321,874.489L335.415,874.523C332.751,874.509 326.537,875.214 324.554,873.792L326.486,869.407C329.501,863.115 336.857,857.665 343.34,855.361L344.71,854.409C355.383,850.382 366.1,849.384 377.448,849.498L378.425,849.757Z" style="fill:rgb(239,195,144);fill-rule:nonzero;"/>
    <path d="M378.987,874.559C382.691,866.582 388.905,857.813 395.083,851.527L394.961,852.189C393.763,859.296 394.205,867.397 395.133,874.52L378.987,874.559Z" style="fill:rgb(168,76,42);fill-rule:nonzero;"/>
    <path d="M377.448,849.498L378.425,849.757L377.999,850.097C375.464,851.92 372.211,853.164 369.516,854.863C361.142,860.144 355.195,866.644 349.321,874.489L335.415,874.523C332.751,874.509 326.537,875.214 324.554,873.792L326.486,869.407C329.501,863.115 336.857,857.665 343.34,855.361L344.71,854.409C355.383,850.382 366.1,849.384 377.448,849.498Z" style="fill:rgb(239,195,144);fill-rule:nonzero;"/>
    <path d="M377.448,849.498L378.425,849.757L377.999,850.097C375.464,851.92 372.211,853.164 369.516,854.863C361.142,860.144 355.195,866.644 349.321,874.489L335.415,874.523C344.426,866.25 354.175,859.427 365.348,854.416C369.035,852.763 373.026,851.672 376.633,849.907L377.448,849.498Z" style="fill:rgb(168,76,42);fill-rule:nonzero;"/>
    <path d="M683.88,357.957C688.125,353.997 692.574,351.443 696.348,346.803C706.38,334.472 709.628,315.892 707.923,300.414C706.424,286.796 699.911,269.164 688.746,260.413L688.202,259.998C688.552,256.365 689.549,252.704 690.602,249.217C696.133,230.904 707.224,212.883 724.608,203.731C729.169,201.33 733.481,199.639 738.465,198.33C742.718,197.212 747.472,196.746 751.847,197.311L752.75,197.44C759.905,198.43 766.253,201.573 771.667,206.313C773.944,208.306 775.989,210.605 778.545,212.25L778.899,212.468C789.874,228.278 790.888,253.325 787.566,271.594C784.871,286.418 779.407,300.474 772.042,313.578C765.839,324.614 758.898,334.23 748.35,341.517C729.257,354.706 706.651,358.211 683.88,357.957Z" style="fill:rgb(140,82,54);fill-rule:nonzero;"/>
    <path d="M741.53,373.849L742.001,374.118C753.298,380.465 765.186,385.424 776.184,392.453C820.395,420.714 856.843,458.744 880.071,506.001C886.201,518.473 891.553,531.212 895.319,544.606L899.404,561.772C904.459,592.567 902.775,622.5 896.654,653C887.761,697.316 869.485,738.04 843.123,774.774C826.786,797.54 806.584,819.678 782.243,834.038C772.788,839.615 762.147,844.22 751.25,845.952C745.74,846.828 739.722,846.812 734.25,845.718L733.323,845.539C729.305,844.722 725.566,843.065 721.838,841.41C720.527,840.827 718.698,840.27 717.75,839.214L720.635,838.478C723.065,838.578 725.81,837.77 728.188,837.261C735.579,835.68 742.744,833.463 749.73,830.571C767.092,823.386 782.939,812.031 796.601,799.25C824.956,772.724 846.027,740.049 860.902,704.33C884.524,647.606 886.653,583.461 862.928,526.509C839.121,469.357 789.987,424.339 734.855,397.798C725.778,393.428 716.18,390.72 706.927,386.903C710.21,385.19 714.585,384.471 718.14,383.245C726.077,380.507 733.914,377.38 741.53,373.849Z" style="fill:rgb(35,132,218);fill-rule:nonzero;"/>
    <path d="M247.028,211.762C248.37,208.468 250.292,205.361 252.259,202.406C262.141,187.569 276.625,178.55 294.008,175.181C310.496,171.985 327.186,175.846 340.99,185.274C343.892,189.01 345.651,193.099 347.513,197.422C351.274,206.154 353.882,214.919 356.171,224.127C356.872,226.948 357.379,232.014 358.801,234.37C361.499,249.237 362.886,265.844 368.5,279.978C370.91,281.336 372.544,283.432 374.405,285.426C378.816,290.151 383.395,293.262 389.844,294.32C390.468,294.423 390.212,294.369 390.871,294.581L383.018,306.159L353.863,359.695C349.917,359.625 345.823,359.766 341.92,359.182C330.855,358.724 319.197,355.961 309.085,351.462L291.144,342.748C286.206,339.632 281.124,336.941 276.34,333.551C260.356,322.224 248.354,306.902 242.05,288.261C233.992,264.431 235.986,234.356 247.028,211.762Z" style="fill:rgb(239,195,144);fill-rule:nonzero;"/>
    <path d="M247.028,211.762C248.37,208.468 250.292,205.361 252.259,202.406C262.141,187.569 276.625,178.55 294.008,175.181C310.496,171.985 327.186,175.846 340.99,185.274C343.892,189.01 345.651,193.099 347.513,197.422C351.274,206.154 353.882,214.919 356.171,224.127C356.872,226.948 357.379,232.014 358.801,234.37C361.499,249.237 362.886,265.844 368.5,279.978C370.91,281.336 372.544,283.432 374.405,285.426C378.816,290.151 383.395,293.262 389.844,294.32C390.468,294.423 390.212,294.369 390.871,294.581L383.018,306.159L353.863,359.695C349.917,359.625 345.823,359.766 341.92,359.182C341.173,357.265 338.646,355.123 337.309,353.406C329.325,343.157 322.065,333.132 319.93,319.923L319.825,319.25C316.372,297.895 333.761,284.993 337.51,265.508L337.689,264.543C339.894,253.028 336.907,244.846 331.096,234.965C322.385,220.152 309.347,202.998 291.813,198.561L291,198.36C285.352,196.929 277.555,196.773 271.957,198.256L271,198.517C264.736,200.176 258.846,203.36 253.557,207.082C251.643,208.429 249.96,210.116 247.92,211.273L247.028,211.762Z" style="fill:rgb(223,137,77);fill-rule:nonzero;"/>
    <path d="M368.5,279.978C370.91,281.336 372.544,283.432 374.405,285.426C378.816,290.151 383.395,293.262 389.844,294.32C390.468,294.423 390.212,294.369 390.871,294.581L383.018,306.159C376.342,299.622 371.372,288.711 368.5,279.978Z" style="fill:rgb(8,58,129);fill-rule:nonzero;"/>
    <path d="M349.527,548L350.5,549C351.212,548.651 351.862,548.353 352.5,547.878L353.121,547.95L353.043,548.675L344.009,553.378L362.57,573.753C381.373,592.581 402.174,609.657 422.267,627.088L472.126,670.834L497.832,692.726C499.742,694.303 510.283,702.031 511.093,703.726C511.643,704.876 510.988,710.696 511.078,712.259L510.966,715.829L511.239,765.792C511.272,771.475 510.645,778.336 511.454,783.91C508.44,783.37 504.621,779.916 501.93,778.181L475.511,761.11L444.641,741.847C438.776,738.245 432.491,734.896 426.978,730.789L402.923,716.644L319.68,671.198L319.401,670.798C317.598,664.723 316.635,657.943 315.425,651.694C310.547,626.482 307.69,601.528 307.435,575.85C309.51,573.332 313.54,571.228 316.285,569.418L315.357,568.707L342.269,552.227L349.527,548Z" style="fill:rgb(35,132,218);fill-rule:nonzero;"/>
    <path d="M349.527,548L350.5,549C351.212,548.651 351.862,548.353 352.5,547.878L353.121,547.95L353.043,548.675L344.009,553.378L316.285,569.418L315.357,568.707L342.269,552.227L349.527,548Z" style="fill:rgb(154,248,254);fill-rule:nonzero;"/>
    <path d="M504.95,242.948C526.507,242.898 547.177,246.334 567.569,253.525L583.601,259.948C592.78,237.708 607.014,219.729 622.69,201.823C639.73,182.358 659.271,162.214 683.5,152.042C705.983,142.603 729.198,143.758 751.514,153.018C776.605,163.431 795.843,185.004 806.09,209.906C811.965,224.181 814.114,239.757 813.97,255.11C812.431,251.082 812.767,245.566 812.233,241.211C810.525,227.291 806.691,213.848 799.927,201.5C786.251,176.536 765.573,160.622 738.414,152.689C731.158,150.66 724.682,149.665 717.158,150.121C711.664,150.762 706.236,151.373 700.877,152.809C683.619,157.433 671.559,168.152 660.728,181.871C651.453,193.616 644.998,207.01 640.339,221.18C638.015,228.247 636.475,235.543 634.788,242.778C631.646,256.251 627.391,276.644 610.5,278.511L608.482,278.642C606.154,277.576 604.195,275.702 602.22,274.092C599.745,271.272 596.242,269.014 593.084,267.01C582.844,260.508 571.216,256.702 559.814,252.783C557.123,251.858 553.458,249.961 550.718,249.643C561.464,256.828 569.435,266.149 573.581,278.5C574.844,282.264 575.649,285.897 576.217,289.823C577.898,301.438 575.306,313.28 568.158,322.654C558.232,335.67 542.592,343.298 530.788,354.538C520.821,364.029 512.309,374.336 504.948,385.994C493.392,404.294 485.212,425.313 478.246,445.714C473.874,458.518 469.349,472.252 468.318,485.808C464.191,484.496 460.087,483.758 455.778,483.371C453.806,482.746 451.319,482.96 449.251,482.914C447.461,465.61 443.97,448.64 442.745,431.21C441.937,419.727 441.388,408.007 442.11,396.506C442.879,384.262 445.026,372.248 447.486,360.25C453.324,331.773 462.827,304.404 477.181,279.088C481.846,270.861 487.123,262.977 493.247,255.762C495.461,253.153 497.945,250.807 500.382,248.411C501.778,247.039 503.608,245.564 504.521,243.819L504.95,242.948Z" style="fill:rgb(20,192,247);fill-rule:nonzero;"/>
    <path d="M449.866,252.343C467.933,246.5 485.99,243.622 504.95,242.948L504.521,243.819C503.608,245.564 501.778,247.039 500.382,248.411C497.945,250.807 495.461,253.153 493.247,255.762C487.123,262.977 481.846,270.861 477.181,279.088C462.827,304.404 453.324,331.773 447.486,360.25C445.026,372.248 442.879,384.262 442.11,396.506C441.388,408.007 441.937,419.727 442.745,431.21C443.97,448.64 447.461,465.61 449.251,482.914C451.319,482.96 453.806,482.746 455.778,483.371C452.191,483.365 448.948,483.294 445.5,484.402L444.635,484.674C438.621,486.648 433.432,490.457 429.581,495.469C424.989,495.217 420.026,492.634 415.75,490.968C393.517,482.306 372.43,471.412 351,460.974C346.242,458.656 341.529,454.982 336.478,453.57L336.218,453.077C329.849,433.84 333.775,415.235 339.325,396.359L353.863,359.695L383.018,306.159L390.871,294.581C395.222,289.096 399.166,283.404 403.886,278.203C416.623,264.171 432.337,258.203 449.866,252.343Z" style="fill:rgb(82,201,243);fill-rule:nonzero;"/>
    <path d="M390.596,359.079C395.184,358.832 399.154,359.361 403.221,361.67C410.297,365.688 414.245,371.869 416.276,379.612C418.811,389.276 416.698,399.807 411.53,408.261C407.291,415.197 401.504,419.589 393.528,421.442C387.683,422.086 382.855,421.742 377.714,418.489C371.244,414.393 367.639,407.577 366.103,400.241C364.03,390.339 366.477,379.988 372.047,371.634C376.496,364.963 382.759,360.705 390.596,359.079Z" style="fill:rgb(10,38,61);fill-rule:nonzero;"/>
    <path d="M386.515,368.535C388.067,368.377 390.297,368.152 391.792,368.628C394.258,369.412 396.147,371.081 397.365,373.348C398.249,374.993 398.311,377.203 397.717,378.96C396.576,382.333 394.077,383.854 390.984,385.258L388.25,385.315C385.5,385.059 382.916,383.567 381.157,381.485C379.438,379.45 379.431,377.828 379.593,375.25C381.194,371.889 383.21,370.179 386.515,368.535Z" style="fill:rgb(255,254,255);fill-rule:nonzero;"/>
    <path d="M250.068,700.706C251.721,696.506 252.106,691.472 253.398,687.078C257.722,672.378 267.061,660.399 278.266,650.245L319.401,670.798L319.68,671.198L402.923,716.644C401.99,719.248 404.907,727.364 405.63,730.432L426.701,807.04L443.352,856.824C433.226,852.468 423.034,850.006 411.958,849.917L404.876,849.011L388.106,848.829C384.821,848.91 381.614,848.863 378.425,849.757L377.448,849.498C366.1,849.384 355.383,850.382 344.71,854.409L343.34,855.361C332.351,848.544 321.725,839.085 312.458,830.112C284.751,803.284 264.418,768.883 254.898,731.5C252.379,721.61 250.244,710.92 250.068,700.706Z" style="fill:rgb(0,128,128);fill-rule:nonzero;"/>
    <path d="M344.71,854.409C330.276,825.604 316.633,795.805 306.305,765.267L286.577,697.033C287.544,697.788 288.375,699.503 289.063,700.537L294.559,708.866L326.902,756.728C342.063,777.599 358.289,798.364 375.678,817.414C378.714,822.99 385.372,828.345 389.704,833.075C392.75,836.402 395.543,840.119 398.713,843.289C400.728,845.303 403.051,846.753 404.876,849.011L388.106,848.829C384.821,848.91 381.614,848.863 378.425,849.757L377.448,849.498C366.1,849.384 355.383,850.382 344.71,854.409Z" style="fill:rgb(10,38,61);fill-rule:nonzero;"/>
    <path d="M319.68,671.198L402.923,716.644C401.99,719.248 404.907,727.364 405.63,730.432L426.701,807.04L443.352,856.824C433.226,852.468 423.034,850.006 411.958,849.917L404.876,849.011C403.051,846.753 400.728,845.303 398.713,843.289C395.543,840.119 392.75,836.402 389.704,833.075C385.372,828.345 378.714,822.99 375.678,817.414C375.467,815.049 374.254,813.075 373.256,810.96L367.629,799.474L353.798,770.199C347.269,756.214 341.939,741.578 336.816,727.031L323.623,687.169C322.184,682.26 319.679,676.342 319.68,671.198Z" style="fill:rgb(8,58,129);fill-rule:nonzero;"/>
    <path d="M468.318,485.808C469.349,472.252 473.874,458.518 478.246,445.714C485.212,425.313 493.392,404.294 504.948,385.994C512.309,374.336 520.821,364.029 530.788,354.538C542.592,343.298 558.232,335.67 568.158,322.654C575.306,313.28 577.898,301.438 576.217,289.823C575.649,285.897 574.844,282.264 573.581,278.5C569.435,266.149 561.464,256.828 550.718,249.643C553.458,249.961 557.123,251.858 559.814,252.783C571.216,256.702 582.844,260.508 593.084,267.01C596.242,269.014 599.745,271.272 602.22,274.092C602.777,276.144 604.356,277.756 605.517,279.5L612.335,290.162L642.382,335.103C653.252,352.828 661.622,372.11 666.188,392.405C669.338,406.395 670.174,421.172 669.231,435.459C669.099,437.455 668.604,437.918 670.445,439.101C674.201,441.084 679.977,443.014 682.92,445.986C679.526,446.439 676.078,447.053 672.648,447.03L668.032,447.621C652.234,449.366 636.902,452.453 621.563,456.573C616.342,457.975 610.848,459.164 605.81,461.117C599.176,462.235 592.32,465.022 585.932,467.174L585.777,466.487C584.846,462.172 584.919,456.771 585.599,452.41C585.72,451.634 585.71,450.9 585.732,450.118C585.796,447.885 586.706,446.31 587.813,444.437C585.627,444.438 580.054,449.114 577.905,450.469C567.732,456.883 556.953,462.797 546.177,468.139L525.5,477.518L493.329,491.01C490.058,492.514 485.807,494.005 483.009,496.26C478.894,491.363 474.191,488.246 468.318,485.808Z" style="fill:url(#_Linear6);fill-rule:nonzero;"/>
    <path d="M668.032,447.621L668.75,442.078L670.605,443.53L672.648,447.03L668.032,447.621Z" style="fill:rgb(10,38,61);fill-rule:nonzero;"/>
    <path d="M576.887,361.189C579.679,361.055 582.444,360.861 585.217,361.306L586,361.44L589.25,362.044C597.245,364.318 605.229,369.81 609.166,377.304C612.254,383.185 612.293,389.482 610.264,395.717L610.004,396.5C609.069,399.367 607.883,402.182 606.28,404.746C600.624,413.795 592.343,419.949 581.972,422.369C578.014,423.345 572.697,423.39 568.75,422.396C560.981,420.44 553.985,415.078 550.053,408.122C546.611,402.032 545.279,393.614 547.196,386.8L547.435,386C548.793,381.322 550.83,377.27 553.847,373.449C559.729,366.001 567.476,362.261 576.887,361.189Z" style="fill:rgb(10,38,61);fill-rule:nonzero;"/>
    <path d="M558.263,378.983C559.041,376.971 560.239,375.124 562.094,373.936C564.668,372.287 566.781,372.588 569.65,373.207C571.656,374.521 574.031,376.091 574.45,378.672C574.794,380.788 574.635,383.074 573.328,384.837C571.991,386.641 570.199,387.85 567.939,388.07C565.559,388.302 563.454,387.964 561.583,386.392C559.301,384.475 558.432,381.869 558.263,378.983Z" style="fill:rgb(255,254,255);fill-rule:nonzero;"/>
    <defs>
        <linearGradient id="_Linear1" x1="0" y1="0" x2="1" y2="0" gradientUnits="userSpaceOnUse" gradientTransform="matrix(-18.8104,-62.1286,62.1286,-18.8104,680.68,505.745)"><stop offset="0" style="stop-color:black;stop-opacity:1"/><stop offset="1" style="stop-color:rgb(22,202,247);stop-opacity:1"/></linearGradient>
        <linearGradient id="_Linear2" x1="0" y1="0" x2="1" y2="0" gradientUnits="userSpaceOnUse" gradientTransform="matrix(-7.88775,22.6899,-22.6899,-7.88775,662.572,533.284)"><stop offset="0" style="stop-color:rgb(11,189,241);stop-opacity:1"/><stop offset="1" style="stop-color:rgb(16,216,243);stop-opacity:1"/></linearGradient>
        <linearGradient id="_Linear3" x1="0" y1="0" x2="1" y2="0" gradientUnits="userSpaceOnUse" gradientTransform="matrix(-21.3436,55.327,-55.327,-21.3436,251.098,419.833)"><stop offset="0" style="stop-color:rgb(78,186,187);stop-opacity:1"/><stop offset="1" style="stop-color:rgb(0,97,203);stop-opacity:1"/></linearGradient>
        <linearGradient id="_Linear4" x1="0" y1="0" x2="1" y2="0" gradientUnits="userSpaceOnUse" gradientTransform="matrix(-20.5417,-61.0244,61.0244,-20.5417,228.931,607.01)"><stop offset="0" style="stop-color:rgb(80,165,124);stop-opacity:1"/><stop offset="1" style="stop-color:rgb(21,204,255);stop-opacity:1"/></linearGradient>
        <linearGradient id="_Linear5" x1="0" y1="0" x2="1" y2="0" gradientUnits="userSpaceOnUse" gradientTransform="matrix(-23.5854,-26.347,26.347,-23.5854,469.849,521.458)"><stop offset="0" style="stop-color:rgb(175,79,67);stop-opacity:1"/><stop offset="1" style="stop-color:rgb(227,162,91);stop-opacity:1"/></linearGradient>
        <linearGradient id="_Linear6" x1="0" y1="0" x2="1" y2="0" gradientUnits="userSpaceOnUse" gradientTransform="matrix(-185.155,-59.1977,59.1977,-185.155,687.847,427.213)"><stop offset="0" style="stop-color:rgb(11,68,102);stop-opacity:1"/><stop offset="1" style="stop-color:rgb(10,99,146);stop-opacity:1"/></linearGradient>
    </defs>
</svg>
