<?xml version="1.0" encoding="UTF-8"?>
<svg xmlns="http://www.w3.org/2000/svg" xmlns:xlink="http://www.w3.org/1999/xlink" version="1.1" id="Capa_1" x="0px" y="0px" viewBox="0 0 511 511" style="enable-background:new 0 0 511 511;" xml:space="preserve" width="512" height="512">
<g>
	<path style="fill:none;stroke:#000000;stroke-width:20;stroke-linecap:round;stroke-linejoin:round;stroke-miterlimit:10;" d="&#10;&#9;&#9;M399.845,462.56v28.381c0,5.555-4.503,10.059-10.059,10.059H121.214c-5.555,0-10.059-4.503-10.059-10.059V192.07&#10;&#9;&#9;c0-2.951,1.296-5.753,3.544-7.664L255.5,64.713l140.801,119.693c2.248,1.911,3.544,4.713,3.544,7.664V371.44"/>
	
		<circle style="fill:none;stroke:#000000;stroke-width:20;stroke-linecap:round;stroke-linejoin:round;stroke-miterlimit:10;" cx="255.5" cy="147.341" r="20.117"/>
	
		<line style="fill:none;stroke:#000000;stroke-width:20;stroke-linecap:round;stroke-linejoin:round;stroke-miterlimit:10;" x1="255.5" y1="125.61" x2="255.5" y2="10"/>
	<path style="fill:none;stroke:#000000;stroke-width:20;stroke-linecap:round;stroke-linejoin:round;stroke-miterlimit:10;" d="&#10;&#9;&#9;M293.555,269.307c0,0-23.861-19.745-52.761-11.039c-26.537,7.994-33.127,44.304-15.094,58.448&#10;&#9;&#9;c10.355,8.121,25.935,14.799,46.933,22.221c46.996,16.612,29.623,82.889-18.182,83.208c-18.656,0.124-27.378-1.06-43.766-11.781"/>
	
		<line style="fill:none;stroke:#000000;stroke-width:20;stroke-linecap:round;stroke-linejoin:round;stroke-miterlimit:10;" x1="254.458" y1="446.331" x2="254.458" y2="422.141"/>
	
		<line style="fill:none;stroke:#000000;stroke-width:20;stroke-linecap:round;stroke-linejoin:round;stroke-miterlimit:10;" x1="254.458" y1="255.874" x2="254.458" y2="233.45"/>
	
		<line style="fill:none;stroke:#000000;stroke-width:20;stroke-linecap:round;stroke-linejoin:round;stroke-miterlimit:10;" x1="399.845" y1="417.082" x2="399.845" y2="417.082"/>
</g>















</svg>
