<?xml version="1.0" encoding="UTF-8" standalone="no"?>
<!DOCTYPE svg PUBLIC "-//W3C//DTD SVG 1.1//EN" "http://www.w3.org/Graphics/SVG/1.1/DTD/svg11.dtd">
<svg width="100%" height="100%" viewBox="0 0 1024 1024" version="1.1" xmlns="http://www.w3.org/2000/svg" xmlns:xlink="http://www.w3.org/1999/xlink" xml:space="preserve" xmlns:serif="http://www.serif.com/" style="fill-rule:evenodd;clip-rule:evenodd;stroke-linejoin:round;stroke-miterlimit:2;">
    <rect x="0" y="-0" width="1024" height="1024" style="fill:rgb(10,38,61);fill-rule:nonzero;"/>
    <path d="M935.5,622.965C937.837,622.171 940.592,622.486 943.038,622.491C948.785,622.503 954.518,622.512 960.25,622.99C961.165,624.301 960.919,624.834 960.851,626.397C959.151,627.567 955.132,627.008 953.05,626.993L952.986,623.5C951.737,622.679 950.071,623.01 948.586,623.005L935.5,622.965Z" style="fill:rgb(35,132,218);fill-rule:nonzero;"/>
    <path d="M463.836,437.149C463.945,435.006 464.244,432.505 465.426,430.664C466.733,428.628 468.824,428.081 471.044,427.537L472.302,434.441C469.528,435.806 467.017,437.303 463.836,437.149Z" style="fill:rgb(247,176,151);fill-rule:nonzero;"/>
    <path d="M935.5,622.965L948.586,623.005C950.071,623.01 951.737,622.679 952.986,623.5L953.05,626.993L940.3,626.971C938.621,626.969 936.556,627.308 935.14,626.432C934.994,625.025 934.978,624.328 935.5,622.965Z" style="fill:rgb(251,252,252);fill-rule:nonzero;"/>
    <path d="M669.743,769.237L696.75,769.349L697.458,770.5C696.93,771.834 696.687,771.718 695.363,772.333L675.988,772.386C674.416,772.387 670.587,772.801 669.25,772.157C668.798,771.939 668.451,771.552 668.051,771.25L668.194,769.75L669.743,769.237Z" style="fill:rgb(251,252,252);fill-rule:nonzero;"/>
    <path d="M655.027,797.925C657.603,807.022 659.744,817.121 663.453,825.815L656.2,826.058C655.886,816.69 654.355,807.322 655.027,797.925Z" style="fill:rgb(119,26,36);fill-rule:nonzero;"/>
    <path d="M631.296,753.25C634.967,752.594 658.121,752.343 660.325,753.665L660.378,755.5L659.25,756.629C656.497,757.39 652.916,756.968 650.058,756.975L631.25,756.99L630.563,756.25L631.296,753.25Z" style="fill:rgb(251,252,252);fill-rule:nonzero;"/>
    <path d="M547.411,426.973C550.239,427.775 552.261,428.99 553.702,431.638C554.172,432.502 554.407,433.299 554.575,434.25L554.702,434.947C555.708,441.128 552.868,446.161 549.367,450.997L546.233,447.092L547.432,442.26C548.179,439.529 548.437,435.902 547.051,433.45L546.77,433.035C546.507,430.726 546.691,429.18 547.411,426.973Z" style="fill:rgb(242,104,72);fill-rule:nonzero;"/>
    <path d="M950.585,629.442C952.377,630.633 952.848,632.722 953.735,634.658C957.087,641.968 959.051,649.606 962.296,656.906L958.96,657.633L950.424,657.965L950.585,629.442Z" style="fill:rgb(0,128,128);fill-rule:nonzero;"/>
    <path d="M438.603,827.432L438.499,825.749C438.749,825.501 438.924,825.138 439.25,825.004C439.959,824.714 442.144,824.994 443.065,824.991L455.094,824.961L533.746,825.063C533.474,825.694 532.822,826.778 532.812,827.433L508.502,827.436L438.603,827.432Z" style="fill:rgb(251,252,252);fill-rule:nonzero;"/>
    <path d="M633.854,797.032C634.378,806.58 632.259,816.609 631.725,826.213L614.119,826.039L633.854,797.032Z" style="fill:rgb(194,59,55);fill-rule:nonzero;"/>
    <path d="M934.601,657.933L943.485,627.991L950,628.082L950.585,629.442L950.424,657.965L934.601,657.933Z" style="fill:rgb(161,208,221);fill-rule:nonzero;"/>
    <path d="M110.539,475.724L114.871,480.599L77.981,516.352C77.158,516.474 76.903,516.657 76.117,516.259C74.465,515.421 73.491,514.485 72.959,512.75L74.039,511.026C78.251,508.191 81.926,503.833 85.531,500.243C93.765,492.043 101.813,483.393 110.539,475.724Z" style="fill:rgb(35,132,218);fill-rule:nonzero;"/>
    <path d="M95.94,619.115C92.131,617.024 87.976,614.242 85.863,610.342C84.772,608.33 84.252,606.132 83.476,604C82.083,600.179 80.483,597.497 81.751,593.281C82.388,591.162 83.598,589.785 85.574,588.779C88.518,587.279 92.766,587.813 95.763,588.863L95.94,619.115Z" style="fill:rgb(239,137,104);fill-rule:nonzero;"/>
    <path d="M592.415,780.502L602.325,826.064C600.353,826.879 597.959,826.628 595.852,826.652C591.382,826.702 586.487,827.052 582.062,826.46C582.383,825.806 582.178,826.024 582.736,825.618L583.25,825.257C583.299,825.219 584.287,824.381 584.295,824.357C584.407,824.04 584.174,822.437 584.155,822C584.081,820.291 584.232,818.678 584.447,816.984L584.545,816.254L591.315,783.137C591.5,781.981 591.494,781.354 592.415,780.502Z" style="fill:rgb(137,198,222);fill-rule:nonzero;"/>
    <path d="M634.251,791.829L634.299,765.506L654.488,765.532L654.517,791.978L634.251,791.829Z" style="fill:rgb(137,198,222);fill-rule:nonzero;"/>
    <path d="M231.61,506.745C232.565,506.394 232.26,506.442 233.074,506.325C234.975,506.05 236.663,505.617 238.5,505.06C249.045,501.865 254.178,495.026 259.433,485.83L259.545,499.293L259.61,523.911C257.879,524.343 256.135,524.722 254.483,525.407C251.388,526.911 248.062,528.3 245.312,530.385L244.361,530.62L241.081,529.216C238.066,527.834 234.155,526.261 232.966,523.056C233.279,518.024 233.617,512.026 232.896,507.054L231.61,506.745Z" style="fill:rgb(194,59,55);fill-rule:nonzero;"/>
    <path d="M232.966,523.056L242.592,524.666C246.518,525.308 250.673,524.503 254.483,525.407C251.388,526.911 248.062,528.3 245.312,530.385L244.361,530.62L241.081,529.216C238.066,527.834 234.155,526.261 232.966,523.056Z" style="fill:rgb(239,137,104);fill-rule:nonzero;"/>
    <path d="M958.96,657.633L965.432,674.745C967.238,679.064 971.464,686.351 971.511,691.116C971.523,692.376 970.428,694.932 969.831,696.084C968.253,699.132 965.45,701.214 962.457,702.728C957.335,703.455 952.278,703.45 947.115,703.458C943.921,703.462 940.466,703.66 937.32,703.056L949.311,703.044C950.429,700.241 949.814,694.967 949.653,691.856C949.677,690.766 949.691,689.836 949.562,688.75L946.301,688.358L949.5,688.035C950.594,686.526 950.099,682.061 950.112,680.035L950.424,657.965L958.96,657.633Z" style="fill:rgb(119,26,36);fill-rule:nonzero;"/>
    <path d="M634.251,791.829L654.517,791.978L655.027,797.925C654.355,807.322 655.886,816.69 656.2,826.058L631.725,826.213C632.259,816.609 634.378,806.58 633.854,797.032L634.251,791.829Z" style="fill:rgb(146,61,60);fill-rule:nonzero;"/>
    <path d="M934.601,657.933L950.424,657.965L950.112,680.035C950.099,682.061 950.594,686.526 949.5,688.035L946.301,688.358L949.562,688.75C949.691,689.836 949.677,690.766 949.653,691.856C949.814,694.967 950.429,700.241 949.311,703.044L937.32,703.056L935.91,702.898C932.719,702.234 929.237,697.8 927.708,695.145C923.411,687.682 928.456,676.174 931.11,668.873L934.601,657.933Z" style="fill:rgb(194,59,55);fill-rule:nonzero;"/>
    <path d="M938.678,681.25C940.959,680.795 945.402,680.786 947.475,682L947.575,683.25L946.25,684.085C944.065,684.794 942.019,684.9 939.75,685.009C938.566,684.311 938.59,684.04 938.049,682.75L938.678,681.25Z" style="fill:rgb(119,26,36);fill-rule:nonzero;"/>
    <path d="M949.653,691.856L948.275,692.206C945.709,692.654 939.712,692.907 937.637,691.417C937.569,690.093 937.531,689.79 938.118,688.621C940.724,688.137 943.647,688.371 946.301,688.358L949.562,688.75C949.691,689.836 949.677,690.766 949.653,691.856Z" style="fill:rgb(10,38,61);fill-rule:nonzero;"/>
    <path d="M434.461,740.567C435.922,743.04 436.75,745.814 437.841,748.462L447.297,772.691C442.982,781.524 438.891,790.701 442.428,800.638C445.424,809.055 451.17,812.597 458.555,816.841L425.185,817.178C424.548,819.07 424.886,821.744 424.891,823.75C426.32,825.423 427.489,823.969 427.321,826.986L419.017,826.885L434.461,740.567Z" style="fill:rgb(251,252,252);fill-rule:nonzero;"/>
    <path d="M536.796,470.509C535.674,481.209 537.44,491.956 536.601,502.569L534.51,510.51C526.54,512.081 519.08,513.101 510.92,513.097C503.147,513.275 495.002,511.522 487.539,509.439L486.466,505.097L485.944,487.595C484.805,483.539 485.522,477.701 485.509,473.426C494.111,480.115 501.847,481.568 512.536,481.587C522.1,480.802 529.993,477.249 536.796,470.509Z" style="fill:rgb(146,61,60);fill-rule:nonzero;"/>
    <path d="M486.168,486.825C486.054,485.062 485.673,482.945 486.25,481.255L487,481.755L487.433,481.856C488.184,482.056 488.707,482.433 489.375,482.823C495.745,486.537 503.499,487.687 510.687,488.869L510.855,495.752C507.825,495.237 504.558,494.997 501.636,494.091C496.216,492.411 491.168,489.443 486.168,486.825Z" style="fill:rgb(164,73,70);fill-rule:nonzero;"/>
    <path d="M486.168,486.825C491.168,489.443 496.216,492.411 501.636,494.091C504.558,494.997 507.825,495.237 510.855,495.752L510.92,513.097C503.147,513.275 495.002,511.522 487.539,509.439L486.466,505.097L485.944,487.595L486.168,486.825Z" style="fill:rgb(239,137,104);fill-rule:nonzero;"/>
    <path d="M511.982,419.87L512.62,419.884C518.66,419.967 525.823,418.025 530.227,413.709C531.955,412.014 533.329,409.925 534.711,407.948C541.081,420.934 540.554,436.017 541.328,450.185C545.612,444.992 545.933,439.702 547.051,433.45C548.437,435.902 548.179,439.529 547.432,442.26L546.233,447.092L549.367,450.997L543.856,458.976L536.796,470.509C529.993,477.249 522.1,480.802 512.536,481.587L513.032,448.106L511.475,446.945C510.834,444.712 511.251,441.277 511.241,438.914L511.2,420.096L511.982,419.87Z" style="fill:rgb(164,73,70);fill-rule:nonzero;"/>
    <path d="M513.032,448.106C519.65,453.08 526.927,459.453 534.652,462.455C537.419,461.031 540.807,458.037 543.856,458.976L536.796,470.509C529.993,477.249 522.1,480.802 512.536,481.587L513.032,448.106Z" style="fill:rgb(161,208,221);fill-rule:nonzero;"/>
    <path d="M472.302,434.441C473.234,440.202 474.294,445.341 477.69,450.188C479.451,436.058 478.398,419.932 484.636,406.91L486.61,409.431C492.978,416.689 501.852,419.458 511.2,420.096L511.241,438.914C511.251,441.277 510.834,444.712 511.475,446.945L513.032,448.106L512.536,481.587C501.847,481.568 494.111,480.115 485.509,473.426C480.973,468.301 478.52,462.862 475.049,457.08L474.893,457.013C473.313,455.575 471.79,453.22 470.543,451.468C467.208,446.787 464.55,442.971 463.836,437.149C467.017,437.303 469.528,435.806 472.302,434.441Z" style="fill:rgb(239,137,104);fill-rule:nonzero;"/>
    <path d="M475.049,457.08C475.398,456.904 476.367,456.502 476.75,456.587C477.871,456.837 482.032,461.18 483.323,462.184C483.508,462.328 484.72,463.333 484.833,463.347C485.104,463.379 486.662,462.706 487,462.562C492.864,460.065 498.207,455.002 503.31,451.241C505.678,449.495 508.421,447.051 511.475,446.945L513.032,448.106L512.536,481.587C501.847,481.568 494.111,480.115 485.509,473.426C480.973,468.301 478.52,462.862 475.049,457.08Z" style="fill:rgb(251,252,252);fill-rule:nonzero;"/>
    <path d="M205.392,470.588C205.548,461.705 206.258,452.754 209.028,444.239C210.372,440.106 212.426,436.2 214.297,432.287C220.126,444.841 229.736,454.691 243,459.448C245.661,460.402 249.081,460.991 251.382,462.623C250.811,466.944 249.814,470.844 252.396,474.75L253.5,475.352C255.462,474.731 256.441,473.927 257.84,472.437C257.662,468.889 256.987,464.181 259.475,461.294C260.717,459.853 262.348,459.1 264.25,459.023C266.424,458.935 268.476,460.137 269.887,461.696C271.591,463.578 271.79,465.782 271.489,468.25C271.177,470.81 269.682,473.149 267.56,474.578C265.792,475.769 263.83,475.679 261.781,475.732C260.707,476.557 259.841,483.954 259.433,485.83C254.178,495.026 249.045,501.865 238.5,505.06C236.663,505.617 234.975,506.05 233.074,506.325C232.26,506.442 232.565,506.394 231.61,506.745L227.108,507.019C222.468,507.075 217.963,504.824 214.718,501.619C206.063,493.071 205.491,481.97 205.392,470.588Z" style="fill:rgb(239,137,104);fill-rule:nonzero;"/>
    <path d="M544.699,825.138L545.081,825.367C546.459,825.963 548.807,825.615 550.362,825.61L569.638,824.884L569.996,856.604L508.62,856.51L438.148,856.445C438.172,846.988 437.518,836.796 438.603,827.432L508.502,827.436L532.812,827.433C532.822,826.778 533.474,825.694 533.746,825.063L544.699,825.138Z" style="fill:rgb(0,128,128);fill-rule:nonzero;"/>
    <path d="M533.746,825.063L544.699,825.138L544.378,826.965C542.325,828.08 535.27,827.71 532.812,827.433C532.822,826.778 533.474,825.694 533.746,825.063Z" style="fill:rgb(35,132,218);fill-rule:nonzero;"/>
    <path d="M95.763,588.863L95.691,573.777C93.403,573.823 90.249,574.288 88.136,573.406C87.902,572.094 87.627,571.311 88.25,570.068L101.457,570.022C103.228,570.039 105.198,569.616 106.587,570.75L106.343,572.846L105.374,572.979C104.365,577.013 104.938,581.856 105.018,586.009C105.046,587.483 104.818,589.784 105.494,591.122L121.497,602.302C119.339,606.08 117.488,610.117 114.917,613.636C113.85,615.098 110.23,618.327 109.898,619.822C108.351,622.009 104.782,625.381 105.21,627.994C104.74,633.826 104.969,639.752 104.993,645.599L105.431,679.877L105.519,712.471C105.535,719.073 105.215,725.868 105.924,732.432L105.868,785.048L110.014,784.952L111.874,785.25C112.808,786.759 112.496,788.496 112.498,790.25L111.828,791.322L109.049,791.682L106.202,791.454L106.135,796.241L106.043,808.501L119.875,808.492C126.238,808.503 132.978,807.866 137.75,813.012C141.206,816.738 141.092,820.826 141.186,825.589L135.004,826.301C126.232,827.278 116.528,826.452 107.656,826.445C92.737,826.433 77.513,827.006 62.633,826.076L62.532,822.573C62.499,818.65 63.619,814.897 66.586,812.134C72.945,806.212 87.208,808.052 95.477,808.376L95.484,792.929L94.722,791.53L88.463,791.59L88.455,784.999L96.095,785.057L96.078,778.039C96.748,773.04 96.347,767.509 96.375,762.44L96.323,726L96.231,659.083L95.94,619.115L95.763,588.863Z" style="fill:rgb(0,128,128);fill-rule:nonzero;"/>
    <path d="M109.898,619.822L105.332,618.678L105.494,591.122L121.497,602.302C119.339,606.08 117.488,610.117 114.917,613.636C113.85,615.098 110.23,618.327 109.898,619.822Z" style="fill:rgb(239,137,104);fill-rule:nonzero;"/>
    <path d="M795.17,441.07C797.731,442.327 798.956,445.706 800.857,447.898C802.522,449.818 804.459,451.461 806.5,452.967C813.133,457.86 820.432,459.763 827.667,463.328C826.654,477.558 823.718,493.287 812.376,503.183C809.535,505.661 806.504,507.421 802.998,508.82L803.418,523.108C803.522,526.592 803.395,530.192 804.593,533.509L802.031,544.5C801.57,546.953 801.313,550.046 800.286,552.294C799.74,553.487 798.725,554.354 797.623,555.02C796.485,555.708 795.39,556.026 794.062,556.07L793.65,556.219C789.023,556.83 781.809,548.655 778.739,545.58C777.144,542.049 776.348,537.597 774.25,534.396C772.894,533.464 771.388,533.595 769.806,533.538L769.966,498.793C768.093,495.743 765.804,492.926 764.151,489.752C762.696,486.959 761.841,483.934 760.38,481.144L757.25,480.97C756.596,480.247 755.945,479.541 755.488,478.671C754.376,476.552 753.412,470.701 754.746,468.553C757.047,464.846 767.799,465.16 771.922,463.784C781.88,460.461 789.634,453.431 794.292,444.076L795.17,441.07Z" style="fill:rgb(146,61,60);fill-rule:nonzero;"/>
    <path d="M769.966,498.793C771.894,500.574 773.842,502.666 775.965,504.196C781.126,507.917 788.341,510.154 794.695,510.171C793.083,512.764 793.915,550.837 794.062,556.07L793.65,556.219C789.023,556.83 781.809,548.655 778.739,545.58C777.144,542.049 776.348,537.597 774.25,534.396C772.894,533.464 771.388,533.595 769.806,533.538L769.966,498.793Z" style="fill:url(#_Linear1);fill-rule:nonzero;"/>
    <path d="M794.292,444.076C795.488,446.875 794.851,452.303 794.882,455.409L795.124,485.458C795.185,493.349 795.843,501.576 795.31,509.418L794.695,510.171C788.341,510.154 781.126,507.917 775.965,504.196C773.842,502.666 771.894,500.574 769.966,498.793C768.093,495.743 765.804,492.926 764.151,489.752C762.696,486.959 761.841,483.934 760.38,481.144L757.25,480.97C756.596,480.247 755.945,479.541 755.488,478.671C754.376,476.552 753.412,470.701 754.746,468.553C757.047,464.846 767.799,465.16 771.922,463.784C781.88,460.461 789.634,453.431 794.292,444.076Z" style="fill:rgb(239,137,104);fill-rule:nonzero;"/>
    <path d="M349.848,825.215C349.415,824.027 349.083,822.899 348.967,821.634C348.338,814.815 348.706,807.628 348.668,800.769L348.469,760.24L348.453,746.716C348.462,745.941 348.24,743.921 348.506,743.25C348.673,742.828 349.278,741.972 349.617,741.617C350.46,740.734 351.33,740.213 352.542,740.063C358.016,739.385 364.27,739.958 369.815,739.947L410.657,739.894L410.611,747.296L410.519,826.075L371.747,825.951C365.215,825.948 357.365,826.751 351.022,825.456L350.287,825.314L349.848,825.215Z" style="fill:rgb(35,132,218);fill-rule:nonzero;"/>
    <path d="M363.378,752.727L402.005,752.541L401.926,788.635L401.908,796.754C401.907,797.515 402.098,799.063 401.902,799.75C401.806,800.086 401.467,800.297 401.25,800.57L397.965,800.767L361.5,800.914C360.627,800.409 360.108,799.961 359.647,799.067C358.577,796.986 358.282,756.915 359.201,755.044C360.063,753.288 361.683,753.027 363.378,752.727Z" style="fill:rgb(137,198,222);fill-rule:nonzero;"/>
    <path d="M410.611,747.296L410.907,826.565L419.017,826.885L427.321,826.986L427.262,827.544L427.013,856.255L32.473,856.1C31.103,855.917 30.601,855.34 29.608,854.453C28.327,851.8 28.458,832.175 29.449,829.07C29.878,828.203 30.479,827.508 31.074,826.75C33.355,825.54 36.747,826.013 39.284,826.003L62.633,826.076C77.513,827.006 92.737,826.433 107.656,826.445C116.528,826.452 126.232,827.278 135.004,826.301L141.186,825.589L145.757,825.432C151.773,824.65 159.102,824.671 165.115,825.466L236.916,825.509L323.267,825.413L349.848,825.215L350.287,825.314L351.022,825.456C357.365,826.751 365.215,825.948 371.747,825.951L410.519,826.075L410.611,747.296Z" style="fill:rgb(0,128,128);fill-rule:nonzero;"/>
    <path d="M141.186,825.589L145.757,825.432L154.814,825.734C155.048,827.124 154.852,827.671 154.25,828.933C152.779,829.775 150.942,829.69 149.287,829.792L136.5,829.98L30.265,830.157L29.449,829.07C29.878,828.203 30.479,827.508 31.074,826.75C33.355,825.54 36.747,826.013 39.284,826.003L62.633,826.076C77.513,827.006 92.737,826.433 107.656,826.445C116.528,826.452 126.232,827.278 135.004,826.301L141.186,825.589Z" style="fill:rgb(35,132,218);fill-rule:nonzero;"/>
    <path d="M68.865,353.007L311.439,352.976L311.512,418.465C308.93,418.494 306.145,418.771 303.642,418.08L303.872,417.538C306.104,411.771 307.073,403.607 304.412,397.828C301.561,391.637 296.715,388.456 290.498,386.157C282.818,384.871 275.166,385.845 268.748,390.624C265.187,393.276 261.831,397.273 260.44,401.5L260.194,402.216C258.919,406.162 259.52,410.378 260.377,414.339L260.416,415.918C258.522,415.572 256.596,414.091 254.785,413.344C249.315,411.086 243.336,409.529 237.41,409.5C226.294,409.201 219.566,412.166 210.514,418.369C206.135,417.883 201.595,418.075 197.19,418.051L175.013,417.984L102.608,418.102L68.899,418.106L68.865,353.007Z" style="fill:rgb(0,128,128);fill-rule:nonzero;"/>
    <path d="M313.515,539.324C317.652,543.286 320.659,546.792 323.071,552.009C327.2,560.936 329.929,570.698 333.048,580.023L351.831,639.493L357.038,656.695C358.107,660.369 359.379,664.136 359.399,668C359.42,671.995 357.426,676.387 354.623,679.188C349.594,684.215 341.758,683.062 335.25,682.858L299.169,680.859C298.688,682.676 298.353,685.247 297.449,686.854C297.131,691.626 298.957,696.5 299.983,701.131L304.276,721.93L323.267,825.413L236.916,825.509L236.487,699.351L272.763,699.058C272.434,695.253 271.607,691.643 270.702,687.945L267.999,677.061L276.449,677.329C278.263,672.85 277.896,669.19 276.806,664.646C275.714,662.92 274.453,661.441 273.118,659.903C277.462,659.098 282.432,659.404 286.903,658.994C287.879,657.226 288.135,654.742 288.664,652.771L292.327,640.023L299.825,614.311C302.239,606.446 304.959,598.482 306.819,590.472C308.23,584.397 308.825,578.173 309.656,572C310.342,566.905 311.308,561.753 311.717,556.633C311.782,555.826 311.765,555.184 312.101,554.427C313.803,550.597 313.482,543.499 313.515,539.324Z" style="fill:rgb(161,208,221);fill-rule:nonzero;"/>
    <path d="M267.999,677.061L276.449,677.329C277.452,678.108 278.304,678.699 279.043,679.75C278.177,682.487 273.027,685.816 270.831,687.747L270.702,687.945L267.999,677.061Z" style="fill:rgb(251,252,252);fill-rule:nonzero;"/>
    <path d="M307.489,625.463L321.594,655.421L314.621,655.929L306.417,656.856C305.194,657.027 303.458,657.554 302.284,657.178L307.489,625.463Z" style="fill:rgb(10,38,61);fill-rule:nonzero;"/>
    <path d="M229.341,522.947L232.966,523.056C234.155,526.261 238.066,527.834 241.081,529.216L244.361,530.62L245.312,530.385C248.062,528.3 251.388,526.911 254.483,525.407C256.135,524.722 257.879,524.343 259.61,523.911L266.824,524.008C269.656,524.252 273.267,524.215 275.926,525.164C289.494,528.49 302.804,529.411 313.515,539.324C313.482,543.499 313.803,550.597 312.101,554.427C311.765,555.184 311.782,555.826 311.717,556.633C311.308,561.753 310.342,566.905 309.656,572C308.825,578.173 308.23,584.397 306.819,590.472C304.959,598.482 302.239,606.446 299.825,614.311L292.327,640.023L288.664,652.771C288.135,654.742 287.879,657.226 286.903,658.994C282.432,659.404 277.462,659.098 273.118,659.903L264.041,659.449C262.16,654.835 260.892,649.751 259.382,645L252.386,623.691C251.425,620.752 250.816,616.172 248.905,613.75C248.23,612.895 246.959,612.196 245.906,612.021C241.898,611.354 236.896,611.926 232.791,611.931L203.032,611.954C197.925,611.957 192.414,612.377 187.355,611.75L186.819,610.75C185.255,612.294 183.926,611.883 181.866,611.886C177.529,611.893 169.486,610.855 166.25,613.618C166.036,614.162 165.687,614.671 165.608,615.25C165.38,616.912 168.639,622.94 169.468,624.854L179.472,649C180.565,651.601 182.634,655.025 183.007,657.735L183.085,658.415C180.741,664.535 179.682,672.841 174.573,677.263C171.663,679.782 167.585,680.82 163.796,680.523C160.996,680.303 158.203,679.107 155.941,677.489C152.902,675.315 150.219,672.191 147.571,669.563L133.87,656.034C124.356,646.694 114.048,637.978 105.21,627.994C104.782,625.381 108.351,622.009 109.898,619.822C110.23,618.327 113.85,615.098 114.917,613.636C117.488,610.117 119.339,606.08 121.497,602.302L150.697,627.251C153.878,619.049 156.106,610.295 158.761,601.887L170.92,565.08C172.992,558.829 174.358,551.543 177.743,545.872C186.22,531.671 202.541,528.116 217.421,524.658C220.864,523.35 225.636,523.359 229.341,522.947Z" style="fill:rgb(251,252,252);fill-rule:nonzero;"/>
    <path d="M266.824,524.008C269.656,524.252 273.267,524.215 275.926,525.164L276.032,525.637L285.89,559.028C279.079,559.033 271.424,558.304 264.717,559.108C263.15,559.242 260.637,559.809 259.25,559.003C259.664,554.365 260.923,549.514 261.932,544.965L266.824,524.008Z" style="fill:rgb(0,128,128);fill-rule:nonzero;"/>
    <path d="M259.61,523.911L266.824,524.008L261.932,544.965C260.923,549.514 259.664,554.365 259.25,559.003C260.637,559.809 263.15,559.242 264.717,559.108C262.312,563.913 260.014,569.108 257.216,573.689C256.099,575.518 254.545,577.041 253.374,578.826C252.15,574.452 251.731,569.735 251.003,565.25L246.84,540.057C248.025,538.866 249.137,537.955 249.525,536.25C248.968,534.048 246.783,532.083 245.312,530.385C248.062,528.3 251.388,526.911 254.483,525.407C256.135,524.722 257.879,524.343 259.61,523.911Z" style="fill:rgb(25,207,208);fill-rule:nonzero;"/>
    <path d="M229.341,522.947L232.966,523.056C234.155,526.261 238.066,527.834 241.081,529.216L244.361,530.62L245.312,530.385C246.783,532.083 248.968,534.048 249.525,536.25C249.137,537.955 248.025,538.866 246.84,540.057L251.003,565.25C251.731,569.735 252.15,574.452 253.374,578.826C250.877,587.77 244.975,595.713 241.67,604.439L239.548,598.626L230.43,575.632C224.824,571.758 222.477,565.318 220.785,559.008L205.569,559.014L217.421,524.658C220.864,523.35 225.636,523.359 229.341,522.947Z" style="fill:rgb(25,207,208);fill-rule:nonzero;"/>
    <path d="M220.785,559.008L224.872,559.147C227.035,562.309 227.973,567.423 229.292,571.046L230.43,575.632C224.824,571.758 222.477,565.318 220.785,559.008Z" style="fill:rgb(231,231,228);fill-rule:nonzero;"/>
    <path d="M244.361,530.62L245.312,530.385C246.783,532.083 248.968,534.048 249.525,536.25C249.137,537.955 248.025,538.866 246.84,540.057L251.003,565.25C251.731,569.735 252.15,574.452 253.374,578.826C250.877,587.77 244.975,595.713 241.67,604.439L239.548,598.626C241.129,588.976 239.653,578.168 240.109,568.345C240.535,559.169 242.36,550.145 242.901,541.031C242.926,540.604 243.14,540.138 242.961,539.75C242.481,538.71 241.136,539.023 240.979,537.484C240.785,535.591 241.541,534.74 242.667,533.343C243.265,532.601 243.776,532.037 244.171,531.155L244.361,530.62Z" style="fill:rgb(0,128,128);fill-rule:nonzero;"/>
    <g transform="matrix(2.09178,0,0,0.871734,-263.728,86)">
        <rect x="159" y="0" width="116" height="331" style="fill:rgb(0,128,128);"/>
    </g>
    <g transform="matrix(1.71247,0,0,0.226586,435.582,855)">
        <rect x="159" y="0" width="116" height="331" style="fill:rgb(0,128,128);"/>
    </g>
    <path d="M183.085,658.415L183.007,657.735C182.634,655.025 180.565,651.601 179.472,649L169.468,624.854C168.639,622.94 165.38,616.912 165.608,615.25C165.687,614.671 166.036,614.162 166.25,613.618C169.486,610.855 177.529,611.893 181.866,611.886C183.926,611.883 185.255,612.294 186.819,610.75L187.355,611.75C192.414,612.377 197.925,611.957 203.032,611.954L232.791,611.931C236.896,611.926 241.898,611.354 245.906,612.021C246.959,612.196 248.23,612.895 248.905,613.75C250.816,616.172 251.425,620.752 252.386,623.691L259.382,645C260.892,649.751 262.16,654.835 264.041,659.449L273.118,659.903C274.453,661.441 275.714,662.92 276.806,664.646C277.896,669.19 278.263,672.85 276.449,677.329L267.999,677.061L270.702,687.945C271.607,691.643 272.434,695.253 272.763,699.058L236.487,699.351L236.916,825.509L165.115,825.466C159.102,824.671 151.773,824.65 145.757,825.432L141.186,825.589C141.092,820.826 141.206,816.738 137.75,813.012C132.978,807.866 126.238,808.503 119.875,808.492L106.043,808.501L106.135,796.241L106.202,791.454L109.049,791.682L111.828,791.322L112.498,790.25C112.496,788.496 112.808,786.759 111.874,785.25L110.014,784.952L105.868,785.048L105.924,732.432C105.215,725.868 105.535,719.073 105.519,712.471L105.431,679.877L104.993,645.599C104.969,639.752 104.74,633.826 105.21,627.994C114.048,637.978 124.356,646.694 133.87,656.034L147.571,669.563C150.219,672.191 152.902,675.315 155.941,677.489C158.203,679.107 160.996,680.303 163.796,680.523C167.585,680.82 171.663,679.782 174.573,677.263C179.682,672.841 180.741,664.535 183.085,658.415Z" style="fill:rgb(10,38,61);fill-rule:nonzero;"/>
    <path d="M264.041,659.449L273.118,659.903C274.453,661.441 275.714,662.92 276.806,664.646C277.896,669.19 278.263,672.85 276.449,677.329L267.999,677.061C261.923,677.387 251.065,678.392 246.31,674.097C244.576,672.53 243.31,670.407 243.268,668.028C243.219,665.153 243.688,663.163 245.805,661.178C249.487,657.725 259.316,659.229 264.041,659.449Z" style="fill:rgb(242,104,72);fill-rule:nonzero;"/>
    <path d="M193.324,678.115L203.431,699.223L236.487,699.351L236.916,825.509L165.115,825.466L182.402,732.454L193.324,678.115Z" style="fill:rgb(251,252,252);fill-rule:nonzero;"/>
    <path d="M471.265,497.201C475.734,494.901 480.543,493.3 485.459,492.301C485.528,496.575 485.442,500.92 486.466,505.097L487.539,509.439L510.592,584.84C512.09,591.444 510.403,598.018 511.13,604.554C510.228,605.192 510.124,605.404 508.982,605.528L508.629,816.527L486.912,816.658L465.646,816.945C463.517,816.95 460.59,816.495 458.555,816.841C451.17,812.597 445.424,809.055 442.428,800.638C438.891,790.701 442.982,781.524 447.297,772.691L437.841,748.462C436.75,745.814 435.922,743.04 434.461,740.567C434.265,738.186 433.107,735.65 432.244,733.428C430.7,734.234 429.348,735.368 427.954,736.409C420.399,726.71 414.09,715.996 407.114,705.88L384.203,672.826C380.888,668.053 375.544,662.588 373.798,657.094C373.136,655.011 373.328,652.564 373.77,650.465C375.101,644.134 377.395,637.924 379.246,631.724L393.612,585.766C397.807,572.565 400.734,558.192 406.679,545.678C418.827,520.108 445.739,506.161 471.265,497.201Z" style="fill:rgb(251,252,252);fill-rule:nonzero;"/>
    <path d="M429.951,628.096L429.33,675.893L426.818,670.37C425.514,666.715 423.785,663.085 422.091,659.587C421.773,658.931 420.177,656.302 420.193,655.704C420.238,653.978 421.945,650.627 422.568,648.914L429.951,628.096Z" style="fill:rgb(10,38,61);fill-rule:nonzero;"/>
    <path d="M468.014,738.747L468.004,709.841L449.144,710.008L449.071,702.428L489.819,702.335L489.841,709.724L474.743,709.668L474.567,738.733C472.355,738.498 470.227,738.628 468.014,738.747Z" style="fill:rgb(35,132,218);fill-rule:nonzero;"/>
    <path d="M432.244,733.428C438.304,729.666 444.069,725.272 450.51,722.173L449.956,738.971C449.634,745.035 449.104,751.754 450.118,757.75C451.169,758.532 450.66,758.184 452.011,758.394L453.49,758.984L447.297,772.691L437.841,748.462C436.75,745.814 435.922,743.04 434.461,740.567C434.265,738.186 433.107,735.65 432.244,733.428Z" style="fill:rgb(247,176,151);fill-rule:nonzero;"/>
    <path d="M468.014,738.747C470.227,738.628 472.355,738.498 474.567,738.733L475.572,738.855L487.537,738.998L487.461,757.081L465.939,757.109C461.473,757.136 456.627,756.788 452.258,757.75L453.573,758.244L453.49,758.984L452.011,758.394C450.66,758.184 451.169,758.532 450.118,757.75C449.104,751.754 449.634,745.035 449.956,738.971C455.887,738.997 462.131,739.396 468.014,738.747Z" style="fill:rgb(137,198,222);fill-rule:nonzero;"/>
    <path d="M471.265,497.201C475.734,494.901 480.543,493.3 485.459,492.301C485.528,496.575 485.442,500.92 486.466,505.097L487.539,509.439L510.592,584.84C512.09,591.444 510.403,598.018 511.13,604.554C510.228,605.192 510.124,605.404 508.982,605.528L466.09,562.748C471.846,557.684 477.782,552.164 482.539,546.149L457.171,546.337C458.066,538.705 460.691,530.656 462.93,523.3L471.265,497.201Z" style="fill:rgb(25,207,208);fill-rule:nonzero;"/>
    <path d="M453.49,758.984L453.573,758.244L452.258,757.75C456.627,756.788 461.473,757.136 465.939,757.109L487.461,757.081C487.42,758.921 487.019,761.773 487.574,763.5C488.535,766.492 490.749,769.743 492.213,772.55C498.932,785.43 503.085,797.753 491.113,809.272C487.623,812.631 483.815,814.505 479.474,816.602L486.912,816.658L465.646,816.945C463.517,816.95 460.59,816.495 458.555,816.841C451.17,812.597 445.424,809.055 442.428,800.638C438.891,790.701 442.982,781.524 447.297,772.691L453.49,758.984Z" style="fill:rgb(35,132,218);fill-rule:nonzero;"/>
    <path d="M536.601,502.569C537.653,499.249 537.539,496.082 537.503,492.64C542.513,493.773 547.097,495.812 551.86,497.681C577.643,505.868 601.629,518.44 614.605,543.4C621.205,556.097 652.277,648.815 649.221,658.985C648.067,662.824 644.568,666.543 642.032,669.554L631.027,682.5L605.274,713.403C600.669,719.031 595.637,724.609 591.68,730.708L585.768,739.576L592.868,769.545C593.816,772.034 594.695,774.694 594.362,777.373C593.13,778.585 592.684,778.747 592.415,780.502C591.494,781.354 591.5,781.981 591.315,783.137L584.545,816.254L532.781,816.431L508.629,816.527L508.982,605.528C510.124,605.404 510.228,605.192 511.13,604.554C510.403,598.018 512.09,591.444 510.592,584.84L487.539,509.439C495.002,511.522 503.147,513.275 510.92,513.097C519.08,513.101 526.54,512.081 534.51,510.51L536.601,502.569Z" style="fill:rgb(137,198,222);fill-rule:nonzero;"/>
    <path d="M596.233,630.181L605.913,656.024C603.201,661.381 599.696,666.291 596.25,671.193L592.101,677.291L596.233,630.181Z" style="fill:rgb(10,38,61);fill-rule:nonzero;"/>
    <path d="M549.483,769.818L548.659,719.41L559.937,719.433L560.047,727.153L559.524,728.925C558.555,735.174 559.04,741.996 559.066,748.329C559.085,752.967 558.701,758.182 559.428,762.743L559.394,769.651C557.688,769.849 555.953,769.769 554.238,769.75L553.719,768.128L553.099,769.68L549.483,769.818Z" style="fill:rgb(10,38,61);fill-rule:nonzero;"/>
    <path d="M553.719,768.128L553.536,737.319C553.537,735.431 552.962,731.249 553.544,729.75C553.675,729.414 554.015,729.204 554.25,728.93L559.524,728.925C558.555,735.174 559.04,741.996 559.066,748.329C559.085,752.967 558.701,758.182 559.428,762.743L559.394,769.651C557.688,769.849 555.953,769.769 554.238,769.75L553.719,768.128Z" style="fill:rgb(137,198,222);fill-rule:nonzero;"/>
    <path d="M560.047,727.153L571.68,711.548L591.68,730.708L585.768,739.576L592.868,769.545C587.737,770.771 581.76,769.583 576.478,769.884C573.614,769.757 568.608,770.218 566.644,768.171L566.25,769.34L563.342,769.606L559.394,769.651L559.428,762.743C558.701,758.182 559.085,752.967 559.066,748.329C559.04,741.996 558.555,735.174 559.524,728.925L560.047,727.153Z" style="fill:rgb(164,73,70);fill-rule:nonzero;"/>
    <path d="M559.428,762.743C559.669,761.213 559.654,759.553 559.74,758L560,759.25C560.236,758.557 560.464,758.117 560.839,757.503L561.363,758.32L562.258,757.836C564.156,760.145 564.935,761.582 565.426,764.504C565.647,765.823 566.131,766.946 566.644,768.171L566.25,769.34L563.342,769.606L559.394,769.651L559.428,762.743Z" style="fill:rgb(10,38,61);fill-rule:nonzero;"/>
    <path d="M559.428,762.743C559.669,761.213 559.654,759.553 559.74,758L560,759.25C560.236,758.557 560.464,758.117 560.839,757.503L561.363,758.32L563.342,769.606L559.394,769.651L559.428,762.743Z" style="fill:rgb(194,59,55);fill-rule:nonzero;"/>
    <path d="M585.768,739.576L592.868,769.545C587.737,770.771 581.76,769.583 576.478,769.884C571.924,761.266 567.005,751.408 565.799,741.687C570.873,743.601 574.7,746.651 578.961,749.892C580.85,746.044 582.824,742.727 585.768,739.576Z" style="fill:rgb(137,198,222);fill-rule:nonzero;"/>
    <path d="M566.644,768.171C568.608,770.218 573.614,769.757 576.478,769.884C581.76,769.583 587.737,770.771 592.868,769.545C593.816,772.034 594.695,774.694 594.362,777.373C593.13,778.585 592.684,778.747 592.415,780.502C591.494,781.354 591.5,781.981 591.315,783.137L584.545,816.254L532.781,816.431L533.462,815.959L528.926,777.781L526.75,777.714C525.483,776.468 525.96,771.843 525.936,769.908L547.001,769.929L549.483,769.818L553.099,769.68L553.719,768.128L554.238,769.75C555.953,769.769 557.688,769.849 559.394,769.651L563.342,769.606L566.25,769.34L566.644,768.171Z" style="fill:rgb(0,128,128);fill-rule:nonzero;"/>
    <path d="M528.926,777.781L542.947,778.07L545.164,815.998L533.462,815.959L528.926,777.781Z" style="fill:rgb(35,132,218);fill-rule:nonzero;"/>
    <path d="M536.601,502.569C537.653,499.249 537.539,496.082 537.503,492.64C542.513,493.773 547.097,495.812 551.86,497.681C551.788,498.097 551.577,498.512 551.645,498.929C551.794,499.834 552.826,501.449 553.226,502.338L556.834,510.973C560.532,520.313 563.137,529.926 565.535,539.668C565.857,540.976 567.312,545.371 566.889,546.421L539.378,546.47L555.131,563.25L511.13,604.554C510.403,598.018 512.09,591.444 510.592,584.84L487.539,509.439C495.002,511.522 503.147,513.275 510.92,513.097C519.08,513.101 526.54,512.081 534.51,510.51L536.601,502.569Z" style="fill:rgb(0,128,128);fill-rule:nonzero;"/>
    <path d="M769.806,533.538C771.388,533.595 772.894,533.464 774.25,534.396C776.348,537.597 777.144,542.049 778.739,545.58C781.809,548.655 789.023,556.83 793.65,556.219L794.062,556.07C795.39,556.026 796.485,555.708 797.623,555.02C798.725,554.354 799.74,553.487 800.286,552.294C801.313,550.046 801.57,546.953 802.031,544.5L804.593,533.509C809.821,536.281 815.777,536.891 821.352,538.686L841.012,543.851C849.897,546.471 859.568,549.292 864.783,557.697C867.116,561.459 867.56,565.546 868.026,569.824L870.544,675.88L909.015,678.455L918.592,679.292C919.865,679.418 921.432,679.309 922.582,679.847L924.25,680.337C924.605,683.554 924.183,686.856 924.623,690.021C925.851,694.508 927.218,698.416 929.709,702.396L921.4,702.278L839.681,702.068C840.241,705.688 843.985,732.063 844.693,732.876L859.869,823.113L860.537,824.351L931.245,823.995L987.058,823.742C987.882,823.749 988.484,823.8 989.132,824.367C992.239,827.083 990.945,837.108 990.899,841.122C990.863,844.272 991.554,852.659 989.36,854.863C989.131,855.093 988.398,855.629 988.033,855.75C985.304,856.659 980.292,855.991 977.273,855.997L946.406,856.094C943.362,856.706 940.216,856.544 937.124,856.571L922.158,856.68L860.791,856.65C836.468,856.613 584.422,857.682 581.864,856.517C581.832,846.758 580.942,836.105 582.062,826.46C586.487,827.052 591.382,826.702 595.852,826.652C597.959,826.628 600.353,826.879 602.325,826.064C605.483,825.897 611.12,825.294 614.119,826.039L631.725,826.213L656.2,826.058L663.453,825.815C666.528,825.589 670.494,825.177 673.494,825.828L673.113,797.929L691.455,797.945L691.415,800.32L691.533,825.623L705.625,825.572C707.791,817.812 708.869,809.395 710.546,801.496L720.553,753.782L723.86,737.523C724.591,733.813 725.55,729.852 725.04,726.064L725.048,707.466L660.744,707.543L685.982,621.736L694.716,590.732C697.242,581.879 699.62,573.117 703.749,564.851C707.379,559.572 711.348,555.072 716.75,551.53C729.091,543.439 745.13,541.469 759.02,537.11C762.734,536.272 766.288,534.981 769.806,533.538Z" style="fill:rgb(0,128,128);fill-rule:nonzero;"/>
    <path d="M922.285,694.139C921.759,693.809 921.195,693.434 920.896,692.863C919.747,690.672 920.265,682.636 920.627,680.083L922.582,679.847L924.25,680.337C924.605,683.554 924.183,686.856 924.623,690.021C923.973,692.021 923.855,692.656 922.285,694.139Z" style="fill:rgb(231,231,228);fill-rule:nonzero;"/>
    <path d="M726.309,727.063L733.971,707.522L739.697,707.81L757.687,659.161C759.465,654.751 761.161,648.856 763.75,644.915L766.868,645.055C775.15,646.027 784.055,645.459 792.401,645.47L838.937,645.487C842.411,645.445 850.54,644.335 853.015,646.793C854.197,647.967 855.599,649.983 855.424,651.721C855.104,654.887 852.343,659.56 851.074,662.582L831.262,707.92L825.603,721.835C824.949,723.249 824.121,724.755 822.852,725.709C818.031,729.335 800.073,726.962 793.434,727.328C785.456,727.496 729.643,728.379 726.309,727.063Z" style="fill:rgb(10,38,61);fill-rule:nonzero;"/>
    <path d="M760.814,685.146C763.743,684.894 767.007,684.875 769.75,686.076C771.793,686.97 774.165,689.011 774.851,691.212C775.288,692.617 775.028,694.322 774.301,695.584C771.448,700.539 764.386,702.812 759.226,704.349L758.579,704.43C753.845,704.969 748.604,704.52 744.75,701.455C744.182,698.213 746.209,693.327 748.174,690.721C751.169,686.751 756.225,685.881 760.814,685.146Z" style="fill:rgb(242,104,72);fill-rule:nonzero;"/>
    <path d="M703.749,564.851C707.379,559.572 711.348,555.072 716.75,551.53C729.091,543.439 745.13,541.469 759.02,537.11C757.435,544.411 755.4,551.764 753.059,558.855C751.794,562.686 749.642,566.888 748.946,570.804L773.615,596.282C779.713,602.781 785.733,610.101 792.769,615.595L792.99,645.054C784.56,644.976 775.186,644.045 766.868,645.055L763.75,644.915C761.161,648.856 759.465,654.751 757.687,659.161L739.697,707.81L733.971,707.522L726.309,727.063C729.643,728.379 785.456,727.496 793.434,727.328L793.93,825.053L705.625,825.572C707.791,817.812 708.869,809.395 710.546,801.496L720.553,753.782L723.86,737.523C724.591,733.813 725.55,729.852 725.04,726.064L725.048,707.466L660.744,707.543L685.982,621.736L694.716,590.732C697.242,581.879 699.62,573.117 703.749,564.851Z" style="fill:rgb(35,132,218);fill-rule:nonzero;"/>
    <path d="M722.428,624.25C722.98,624.195 722.622,624.187 723.466,624.523L723.501,675.477L704.75,675.46L703.72,675.211L703.429,674.5L722.428,624.25Z" style="fill:rgb(10,38,61);fill-rule:nonzero;"/>
    <defs>
        <linearGradient id="_Linear1" x1="0" y1="0" x2="1" y2="0" gradientUnits="userSpaceOnUse" gradientTransform="matrix(-26.2105,6.89466,-6.89466,-26.2105,796.393,523.898)"><stop offset="0" style="stop-color:rgb(177,81,73);stop-opacity:1"/><stop offset="1" style="stop-color:rgb(216,111,89);stop-opacity:1"/></linearGradient>
    </defs>
</svg>
