<?xml version="1.0" encoding="UTF-8" standalone="no"?>
<!DOCTYPE svg PUBLIC "-//W3C//DTD SVG 1.1//EN" "http://www.w3.org/Graphics/SVG/1.1/DTD/svg11.dtd">
<svg width="100%" height="100%" viewBox="0 0 1024 1024" version="1.1" xmlns="http://www.w3.org/2000/svg" xmlns:xlink="http://www.w3.org/1999/xlink" xml:space="preserve" xmlns:serif="http://www.serif.com/" style="fill-rule:evenodd;clip-rule:evenodd;stroke-linejoin:round;stroke-miterlimit:2;">
    <rect x="-0" y="-0" width="1024" height="1024" style="fill:rgb(10,38,61);fill-rule:nonzero;"/>
    <g transform="matrix(1,0,0,1,-19.5714,0)">
        <g transform="matrix(1.10624,0,0,1.10624,-0.639597,-80.2021)">
            <g transform="matrix(0.676788,0,0,0.676788,305.2,165.607)">
                <path d="M585.47,707.514L613.75,735L614.455,735.701C615.135,736.341 615.688,736.664 616.521,737.054C612.987,741.043 608.314,744.312 604,747.42C580.566,764.305 552.644,773.995 523.861,775.876L512.373,776.082L512.318,733.254C517.381,733.155 522.531,733.198 527.561,732.575C549.218,729.892 568.555,721.191 585.47,707.514Z" style="fill:rgb(0,128,128);fill-rule:nonzero;"/>
            </g>
            <g transform="matrix(0.676788,0,0,0.676788,305.2,165.607)">
                <path d="M511.155,152.922C567.201,153.69 619.663,171.622 664.312,205.643C670.337,210.233 676.125,215.129 681.644,220.315C685.685,224.113 689.636,228.383 693.933,231.862L618.295,299.881C615.748,298.669 613.223,295.942 611.058,294.084C607.111,290.696 603.089,287.259 598.844,284.247C573.804,266.478 542.534,254.365 511.516,254.655L511.125,254.513C511.688,251.179 511.159,247.004 511.132,243.59L511.096,222.769L511.155,152.922Z" style="fill:rgb(8,196,146);fill-rule:nonzero;"/>
            </g>
            <g transform="matrix(0.676788,0,0,0.676788,305.2,165.607)">
                <path d="M437.744,704.724C455.238,718.195 473.43,727.432 495.292,731.417C500.973,732.453 506.593,732.718 512.318,733.254L512.373,776.082L512.324,776.435L512.033,870.43L511.184,870.573C507.602,870.925 503.498,870.54 499.888,870.393C490.069,869.993 480.24,868.921 470.569,867.177C437.2,861.16 405.479,849.764 377.566,830.195C366.973,822.768 357.082,814.282 347.008,806.173L342.501,802.264L408.016,734.864L407.984,734.519L408.322,733.572C413.025,730.502 417.322,725.257 421.325,721.264C426.799,715.806 432.683,710.554 437.744,704.724Z" style="fill:url(#_Linear1);fill-rule:nonzero;"/>
            </g>
            <g transform="matrix(0.676788,0,0,0.676788,305.2,165.607)">
                <path d="M437.744,704.724C455.238,718.195 473.43,727.432 495.292,731.417C500.973,732.453 506.593,732.718 512.318,733.254L512.373,776.082L512.324,776.435C511.451,776.109 511.669,776.108 510.919,776.056C481.521,773.983 452.155,765.809 427.342,749.498C420.507,745.004 414.546,739.709 408.016,734.864L407.984,734.519L408.322,733.572C413.025,730.502 417.322,725.257 421.325,721.264C426.799,715.806 432.683,710.554 437.744,704.724Z" style="fill:rgb(113,76,41);fill-rule:nonzero;"/>
            </g>
            <g transform="matrix(0.676788,0,0,0.676788,305.2,165.607)">
                <path d="M693.933,231.862C697.29,234.875 700.267,238.235 703.304,241.562C703.846,242.156 705.532,244.371 706.202,244.62C716.802,257.282 726.885,270.193 735.568,284.275C754.209,314.509 766.061,348.381 769.3,383.797C770.558,397.555 770.15,411.507 770.268,425.312L770.49,512.459L665.157,511.989C664.338,502.12 665.056,491.585 665.06,481.64L665.079,420.884C665.081,410.111 665.525,399.234 664.203,388.528C661.033,362.853 650.085,337.696 634.445,317.172C629.667,310.902 624.538,304.728 618.295,299.881L693.933,231.862Z" style="fill:rgb(0,128,128);fill-rule:nonzero;"/>
            </g>
            <g transform="matrix(0.676788,0,0,0.676788,305.2,165.607)">
                <path d="M358.308,512.127L398.619,512.021L398.534,584.632C398.538,603.839 397.132,624.171 400.485,643.129C404.21,664.185 416.066,683.558 430.885,698.613L437.744,704.724C432.683,710.554 426.799,715.806 421.325,721.264C417.322,725.257 413.025,730.502 408.322,733.572L407.984,734.519L408.016,734.864L342.501,802.264C335.472,796.488 329.301,789.473 323.154,782.779C314.31,773.148 305.731,763.309 298.174,752.622C283.521,731.901 271.711,707.583 264.388,683.321C262.303,678.858 261.309,672.693 260.184,667.868C256.891,653.741 254.598,639.342 253.495,624.871C252.182,607.642 252.494,590.262 252.488,572.996L252.496,512.458L253.043,512.341C257.117,511.861 261.393,512.129 265.497,512.127L287.091,512.129L358.308,512.127Z" style="fill:url(#_Linear2);fill-rule:nonzero;"/>
            </g>
            <g transform="matrix(0.676788,0,0,0.676788,305.2,165.607)">
                <path d="M358.308,512.127L398.619,512.021L398.534,584.632C398.538,603.839 397.132,624.171 400.485,643.129C404.21,664.185 416.066,683.558 430.885,698.613L437.744,704.724C432.683,710.554 426.799,715.806 421.325,721.264C417.322,725.257 413.025,730.502 408.322,733.572L407.984,734.519C405.608,732.948 403.219,730.045 401.278,727.943C395.825,722.033 390.741,715.964 386.184,709.332C383.947,706.077 382.085,702.357 379.723,699.241L379.268,698.656C376.187,692.621 373.002,686.68 370.469,680.382C363.844,663.919 359.864,645.832 358.703,628.14C357.752,613.649 358.379,598.738 358.292,584.199L358.147,512.399L253.043,512.341C257.117,511.861 261.393,512.129 265.497,512.127L287.091,512.129L358.308,512.127Z" style="fill:rgb(179,135,78);fill-rule:nonzero;"/>
            </g>
            <g transform="matrix(0.676788,0,0,0.676788,305.2,165.607)">
                <path d="M624.114,610.269C624.806,607.423 624.466,604.079 624.476,601.158L624.507,582.967L624.237,511.755C630.342,511.739 661.835,510.723 665.025,512.313L665.157,511.989L770.49,512.459L770.659,583.859C770.761,600.115 771.611,616.645 770.23,632.849C768.179,656.921 763.155,681.743 754.565,704.37C742.769,735.444 722.675,765.257 699.376,788.876L683.626,804.023L617.007,736.955L616.521,737.054C615.688,736.664 615.135,736.341 614.455,735.701L613.75,735L585.47,707.514C594.071,699.94 601.803,691.515 607.687,681.628C611.964,674.442 615.036,666.817 618.129,659.082C623.179,642.678 623.982,627.277 624.114,610.269Z" style="fill:url(#_Linear3);fill-rule:nonzero;"/>
            </g>
            <g transform="matrix(0.676788,0,0,0.676788,305.2,165.607)">
                <path d="M624.114,610.269C624.806,607.423 624.466,604.079 624.476,601.158L624.507,582.967L624.237,511.755C630.342,511.739 661.835,510.723 665.025,512.313L665.258,571.645L665.258,614.14C665.103,632.199 664.847,649.992 659.265,667.375C657.817,674.49 654.788,681.727 651.738,688.295C645.747,701.193 638.552,713.076 629.402,723.985C625.557,728.571 621.026,732.529 617.007,736.955L616.521,737.054C615.688,736.664 615.135,736.341 614.455,735.701L613.75,735L585.47,707.514C594.071,699.94 601.803,691.515 607.687,681.628C611.964,674.442 615.036,666.817 618.129,659.082C623.179,642.678 623.982,627.277 624.114,610.269Z" style="fill:url(#_Linear4);fill-rule:nonzero;"/>
            </g>
            <g transform="matrix(0.676788,0,0,0.676788,305.2,165.607)">
                <path d="M282.656,300.43C282.912,297.833 286.338,292.757 287.69,290.329C300.488,267.343 315.634,246.783 334.141,228.087C380.798,180.952 444.71,153.276 511.155,152.922L511.096,222.769L511.132,243.59C511.159,247.004 511.688,251.179 511.125,254.513L511.516,254.655C510.836,258.938 511.182,263.672 511.16,268.03L511.054,292.795C512.869,292.942 514.866,292.942 516.621,293.437C486.156,293.116 456.088,301.498 433.841,323.274C410.734,345.892 399.051,374.282 398.789,406.558L398.619,512.021L358.308,512.127L287.091,512.129L265.497,512.127C261.393,512.129 257.117,511.861 253.043,512.341L252.496,512.458L252.461,453.055L252.617,414.25C253.976,385.348 259.765,357.068 269.652,329.885C273.186,320.167 277.086,309.144 282.656,300.43Z" style="fill:url(#_Linear5);fill-rule:nonzero;"/>
            </g>
            <g transform="matrix(0.676788,0,0,0.676788,305.2,165.607)">
                <path d="M387.256,317.414C387.813,317.117 388.954,315.221 389.38,314.665L395.205,307.176C398.343,303.277 401.736,299.437 405.3,295.929C433.711,267.957 471.536,254.076 511.125,254.513L511.516,254.655C510.836,258.938 511.182,263.672 511.16,268.03L511.054,292.795C512.869,292.942 514.866,292.942 516.621,293.437C486.156,293.116 456.088,301.498 433.841,323.274C410.734,345.892 399.051,374.282 398.789,406.558L398.619,512.021L358.308,512.127L358.152,443.789C358.025,428.325 357.444,412.645 358.675,397.231C360.319,376.656 365.882,355.796 375.188,337.366C378.72,330.371 382.964,323.954 387.256,317.414Z" style="fill:rgb(0,128,128);fill-rule:nonzero;"/>
            </g>
            <g transform="matrix(0.676788,0,0,0.676788,305.2,165.607)">
                <path d="M511.516,254.655C542.534,254.365 573.804,266.478 598.844,284.247C603.089,287.259 607.111,290.696 611.058,294.084C613.223,295.942 615.748,298.669 618.295,299.881C624.538,304.728 629.667,310.902 634.445,317.172C650.085,337.696 661.033,362.853 664.203,388.528C665.525,399.234 665.081,410.111 665.079,420.884L665.06,481.64C665.056,491.585 664.338,502.12 665.157,511.989L665.025,512.313C661.835,510.723 630.342,511.739 624.237,511.755L624.507,582.967L624.476,601.158C624.466,604.079 624.806,607.423 624.114,610.269C623.982,627.277 623.179,642.678 618.129,659.082C615.036,666.817 611.964,674.442 607.687,681.628C601.803,691.515 594.071,699.94 585.47,707.514C568.555,721.191 549.218,729.892 527.561,732.575C522.531,733.198 517.381,733.155 512.318,733.254C506.593,732.718 500.973,732.453 495.292,731.417C473.43,727.432 455.238,718.195 437.744,704.724L430.885,698.613C416.066,683.558 404.21,664.185 400.485,643.129C397.132,624.171 398.538,603.839 398.534,584.632L398.619,512.021L398.789,406.558C399.051,374.282 410.734,345.892 433.841,323.274C456.088,301.498 486.156,293.116 516.621,293.437C514.866,292.942 512.869,292.942 511.054,292.795L511.16,268.03C511.182,263.672 510.836,258.938 511.516,254.655Z" style="fill:rgb(10,38,61);fill-rule:nonzero;"/>
            </g>
            <g transform="matrix(0.676788,0,0,0.676788,305.2,165.607)">
                <path d="M511.516,254.655C542.534,254.365 573.804,266.478 598.844,284.247C603.089,287.259 607.111,290.696 611.058,294.084C613.223,295.942 615.748,298.669 618.295,299.881C624.538,304.728 629.667,310.902 634.445,317.172C650.085,337.696 661.033,362.853 664.203,388.528C665.525,399.234 665.081,410.111 665.079,420.884L665.06,481.64C665.056,491.585 664.338,502.12 665.157,511.989L665.025,512.313C661.835,510.723 630.342,511.739 624.237,511.755L624.507,582.967L624.476,601.158C624.466,604.079 624.806,607.423 624.114,610.269L624.044,557.223L623.945,451.068L623.916,417.381C623.896,405.138 623.86,393.35 621.272,381.303C617.164,362.183 608.584,345.059 595.654,330.386C575.526,307.543 546.709,295.42 516.621,293.437C514.866,292.942 512.869,292.942 511.054,292.795L511.16,268.03C511.182,263.672 510.836,258.938 511.516,254.655Z" style="fill:rgb(35,132,218);fill-rule:nonzero;"/>
            </g>
        </g>
        <g transform="matrix(0.747101,0,0,0.747101,-41.0882,110.711)">
            <path d="M402.48,440.918C404.061,440.281 406.289,440.58 407.978,440.577L421.216,440.559C437.563,440.539 454.323,441.344 470.588,439.765L470.859,440.741C457.279,456.91 441.454,471.595 426.614,486.619L411.541,501.998C408.603,505.03 405.735,508.362 402.494,511.055L402.48,440.918Z" style="fill:rgb(82,211,228);fill-rule:nonzero;"/>
            <path d="M289.25,338.032L336.853,338.037L355.079,338.086C357.202,338.091 360.434,338.571 362.32,337.533C363.764,339.081 366.075,339.253 368.098,339.889L382.476,344.319C384.72,345.008 387.247,346.207 389.534,346.536C393.942,347.453 424.95,359.303 427.477,361.5C425.296,362.429 420.907,361.698 418.45,361.628L402.66,361.513L311.009,361.406C305.06,360.551 298.191,361.174 292.145,361.15C291.005,361.146 288.352,361.47 287.353,361.132C285.856,360.625 283.195,358.018 281.855,356.983L258.032,337.979L289.25,338.032Z" style="fill:rgb(0,128,128);fill-rule:nonzero;"/>
            <path d="M389.534,346.536C388.674,328.142 394.569,311.925 405.095,296.971C416.484,280.792 433.711,270.717 452.512,265.301C459.524,263.281 466.603,262.195 473.75,260.84L478,260.289C479.564,259.996 481.345,260.021 482.828,259.557L485,258.961L485.631,259.25L486.25,258.901L488.642,259.818C464.485,271.753 444.367,288.677 435.514,315C430.409,330.179 428.806,345.297 429.255,361.25L427.477,361.5C424.95,359.303 393.942,347.453 389.534,346.536Z" style="fill:url(#_Linear6);fill-rule:nonzero;"/>
            <path d="M379.388,630.188C392.35,632.606 404.716,636.547 417.014,641.25L427.634,645.578C429.2,646.253 431.279,647.528 432.956,647.561C433.097,676.839 445.563,701.197 464.442,722.937C468.71,726.667 472.746,730.421 477.358,733.748C480.324,735.887 483.717,737.559 486.565,739.796L512.642,751.517L504.128,757.932L494.972,758.382L469.849,756.768C461.418,755.517 453.379,753.369 445.361,750.516C444.512,748.388 441.675,747.705 439.623,746.736C429.398,741.603 421.076,734.509 413.114,726.405C387.858,700.698 378.15,666.32 378.457,631L379.388,630.188Z" style="fill:url(#_Linear7);fill-rule:nonzero;"/>
            <path d="M561.3,652.221C565.667,650.883 570.101,645.27 573.342,642.096L591.358,624.322L626.281,589.899C634.224,581.896 641.92,573.131 650.35,565.681C659.309,579.622 665.126,595.899 668.974,611.922L671.756,626.031C671.957,627.068 672.085,629.176 672.597,630.047L640.896,661.312L588.724,713.116L568.327,733.535C562.571,739.305 556.961,745.135 550.44,750.068C533.42,762.945 513.953,771.328 493.618,777.383C489.308,778.666 484.572,780.372 480.125,780.878L504.128,757.932L512.642,751.517C514.715,750.533 516.599,748.522 518.264,746.954L528.93,736.129C540.968,723.196 550.019,706.122 555.993,689.564C559.558,677.287 561.792,665.056 561.3,652.221Z" style="fill:rgb(35,132,218);fill-rule:nonzero;"/>
            <path d="M258.032,337.979L258,335.25C258.581,326.542 260.292,317.459 262.063,308.92C271.483,263.517 294.56,224.144 329.463,193.597C358.519,168.168 395.71,151.628 433.75,145.706C453.316,142.66 472.871,142.359 492.586,143.636L493.034,144.5C486.698,151.784 478.702,158.335 471.654,164.975L436.996,198.067L322.55,306.107L299.872,327.348C296.617,330.386 291.432,334.147 289.25,338.032L258.032,337.979Z" style="fill:rgb(165,233,251);fill-rule:nonzero;"/>
            <path d="M538.638,152.513C576.946,153.143 616.922,167.19 648.927,187.789C654.66,191.479 660.998,195.415 665.957,200.077L665.998,200.158C676.629,208.303 686.027,217.866 694.75,227.999C695.805,229.224 697.914,232.753 699.161,233.483C705.107,242.08 710.921,250.768 715.355,260.266C723.351,277.391 727.251,296.901 728.865,315.607C729.645,324.645 730.19,333.729 729.476,342.792C729.596,348.826 728.884,354.774 728.114,360.75C723.999,392.672 708.66,425.18 686.306,448.431C673.329,461.928 659.198,474.371 644.217,485.619L623.69,499.623L624.162,499.731C630.74,501.287 637.106,503.934 643.311,506.564C672.74,519.037 699.349,540.632 716.151,567.935C741.605,609.298 745.631,662.96 734.363,709.48C722.493,758.489 691.554,800.711 648.472,826.78C620.356,843.792 588.562,854.327 556.108,859.04L533.25,861.591C531.09,861.905 528.749,861.37 526.623,861.912C524.229,862.523 520.803,862.113 518.25,862.118L502.586,861.718C499.937,861.659 496.838,862.017 494.25,861.617C489.627,860.901 484.493,860.673 479.75,860.61L479.255,860L480,859.255L480.581,859.276C481.755,859.271 480.779,859.311 482,858.878C484.967,857.823 494.159,860.078 496,858.255L502.5,858.25L503,857.755C504.663,857.867 505.902,858.026 507.502,857.503C508.188,857.278 508.675,857.255 509.383,857.324C510.176,857.402 510.399,857.238 511.125,857.003C512.166,856.665 512.473,856.87 513.5,856.878C514.47,856.885 514.822,856.926 515.5,856.255L516.5,856.378C517.277,856.418 517.886,856.162 518.625,856.003C519.489,855.816 519.386,855.893 520.18,855.893C521.475,855.893 522.718,855.547 524,855.378C524.877,855.261 525.644,855.053 526.5,854.878C527.679,854.635 531.332,854.416 532,853.755C533.258,853.709 534.271,853.618 535.5,853.378L536.136,853.329C537.008,853.241 536.643,853.324 537.5,852.755C538.847,852.716 539.973,852.724 541.25,852.255C542.368,851.844 543.315,851.722 544.5,851.75L545,851.255L546,851.378L547.003,851.003L548.25,850.755L549.003,850.503L551.003,850.003C551.64,849.82 552.282,849.76 552.937,849.698C554.694,849.532 556.267,848.661 558.039,848.391C559.362,848.19 559.857,847.795 561,847.255L562.25,847L563.75,846.5L567.392,845.235C568.802,844.675 570.084,844.401 571.5,843.755L573.375,843.253L574.75,842.755L575.445,842.536L579.125,841.003C579.975,840.645 580.731,840.261 581.5,839.755L582.09,839.782C582.981,839.779 582.998,839.609 583.75,839.273C592.069,835.549 600.355,832.129 608.396,827.75C644.105,808.303 671.207,778.075 688.101,741.18C694.904,726.324 699.69,709.38 702.277,693.28L704.084,677.644C704.606,674.452 704.09,671.18 704.606,668C705.135,664.746 705.233,659.097 704.378,656C704.15,655.175 704.367,653.737 704.452,652.875C704.601,651.348 704.358,649.656 704.002,648.17C703.719,646.989 703.871,646.178 703.878,645C703.881,644.339 703.759,643.849 703.825,643.172C703.946,641.936 703.659,640.747 703.411,639.545C703.172,638.385 703.244,639.126 703.378,638C703.554,636.517 702.818,632.92 702.396,631.537C702.028,630.33 702.061,628.815 701.755,627.5L701.626,625.837L701.378,625L701.329,624.398C701.219,623.311 700.782,622.12 700.578,620.997L700.398,620.326C699.991,618.755 700.483,620.904 700.378,619L699.893,617.532C699.538,616.527 699.482,615.732 699.25,614.745L698.755,613.5C698.351,612.373 698.171,611.302 698.059,610.117L698.636,609.331C698.969,608.733 698.808,608.052 698.609,607.455C696.001,599.615 693.353,590.007 688.926,583.027C687.607,582.477 686.171,578.867 685.503,577.497C684.617,575.684 683.443,573.625 682.255,572C681.481,570.941 680.992,569.832 680.271,568.75L676.255,562.75C675.795,562.013 675.445,561.413 674.879,560.733L673.503,558.997C673.028,557.981 672.548,557.855 672.003,556.997C671.535,556.262 670.945,555.693 670.503,554.997C669.951,554.13 668.939,553.293 668.503,552.497C667.699,551.033 666.868,550.257 665.5,549.245C663.8,547.987 662.484,546.217 660.976,544.723L650.028,534.523C645.056,530.309 639.953,525.634 634.645,521.878C620.314,511.734 604.419,505.327 588.235,498.875L626.498,471.998C630.454,469.097 634.207,465.175 637.738,461.725C654.595,445.26 668.594,426.374 677.823,404.645C679.012,401.845 680.492,399.057 681.097,396.05C681.587,393.617 682.492,391.555 683.25,389.216L687.142,376.25C690.856,361.895 691.668,346.984 691.431,332.234C691.403,330.514 691.806,327.05 691.256,325.5C690.669,323.842 690.713,322.435 690.658,320.666L690.99,316.263C690.522,302.732 687.234,288.743 682.891,275.961C673.792,249.183 659.768,226.114 640.168,205.807L634.077,199.602C618.206,186.946 601.538,175.468 582.128,168.956L578.406,167.738L573,166.076C569.951,164.981 567.101,164.467 563.957,163.839L563.524,163.745C564.232,164.144 564.724,164.571 565.281,165.153L565.941,165.85L538.638,152.513Z" style="fill:url(#_Linear8);fill-rule:nonzero;"/>
            <path d="M492.586,143.636L538.638,152.513L565.941,165.85L581.708,175.63C595.193,184.416 607.833,195.152 618.233,207.455C630.934,222.043 640.35,237.724 648.307,255.31L556.456,347.739C556.599,331.396 555.383,316.151 549.559,300.715C541.813,280.183 525.228,262.425 505.202,253.435C480.548,242.353 450.487,241.542 425.162,251.001C400.884,260.067 382.297,277.427 371.509,301C366.503,311.94 362.687,325.482 362.32,337.533C360.434,338.571 357.202,338.091 355.079,338.086L336.853,338.037L289.25,338.032C291.432,334.147 296.617,330.386 299.872,327.348L322.55,306.107L436.996,198.067L471.654,164.975C478.702,158.335 486.698,151.784 493.034,144.5L492.586,143.636Z" style="fill:rgb(82,211,228);fill-rule:nonzero;"/>
            <path d="M284.691,747.454C271.233,723.176 261.663,698.111 257.259,670.609C255.115,657.222 254.508,643.926 254.311,630.405L363.508,627.712C365.622,628.087 378.795,629.651 379.388,630.188L378.457,631C378.15,666.32 387.858,700.698 413.114,726.405C421.076,734.509 429.398,741.603 439.623,746.736C441.675,747.705 444.512,748.388 445.361,750.516C453.379,753.369 461.418,755.517 469.849,756.768L494.972,758.382C491.162,761.208 487.923,764.752 484.55,768.071L471.685,780.352L405.146,844.743C398.732,842.438 392.198,840.361 385.944,837.639C374.234,832.544 363.276,826.191 352.455,819.45L346.445,815.359C340.514,811.678 335.002,806.802 329.757,802.213C312.143,786.802 295.661,768.237 284.691,747.454Z" style="fill:rgb(35,132,218);fill-rule:nonzero;"/>
            <path d="M363.508,627.712C365.622,628.087 378.795,629.651 379.388,630.188L378.457,631C378.15,666.32 387.858,700.698 413.114,726.405C421.076,734.509 429.398,741.603 439.623,746.736C441.675,747.705 444.512,748.388 445.361,750.516C436.305,748.038 427.536,743.228 419.389,738.624C396.905,724.444 381.237,704.441 372.049,679.522C369.601,672.885 367.972,665.981 366.317,659.114L363.508,627.712Z" style="fill:rgb(212,87,41);fill-rule:nonzero;"/>
            <path d="M648.307,255.31C651.101,260.625 652.865,266.749 654.534,272.5C659.281,288.862 661.919,304.724 662.968,321.731L663.184,337.301C662.64,352.109 660.751,366.292 656.449,380.508C647.488,410.118 628.493,435.523 606.076,456.351C587.642,473.479 568.976,489.526 546.885,501.779C581.462,503.938 612.348,519.296 635.286,545.246C640.768,551.448 646.288,558.449 650.35,565.681C641.92,573.131 634.224,581.896 626.281,589.899L591.358,624.322L573.342,642.096C570.101,645.27 565.667,650.883 561.3,652.221C559.275,628.249 551.918,606.103 534.59,588.599C516.849,570.679 494.125,560.999 469.189,558.54C451.637,556.809 433.803,557.944 416.189,557.917C412.179,557.976 406.726,558.744 402.921,557.608C401.746,555.055 402.505,548.667 402.501,545.697L402.494,511.055C405.735,508.362 408.603,505.03 411.541,501.998L426.614,486.619C441.454,471.595 457.279,456.91 470.859,440.741L470.588,439.765C470.74,439.475 471.227,439.617 471.551,439.574L483.275,437.657C499.37,434.756 514.648,428.737 527.132,417.934C547.404,400.392 554.449,373.405 556.456,347.739L648.307,255.31Z" style="fill:rgb(0,128,128);fill-rule:nonzero;"/>
            <path d="M648.307,255.31C651.101,260.625 652.865,266.749 654.534,272.5C659.281,288.862 661.919,304.724 662.968,321.731L481.04,504.273L441.876,543.584L432.343,554.067C431.822,554.664 429.913,557.271 429.393,557.479C428.426,557.867 425.074,557.481 423.907,557.481L402.921,557.608C401.746,555.055 402.505,548.667 402.501,545.697L402.494,511.055C405.735,508.362 408.603,505.03 411.541,501.998L426.614,486.619C441.454,471.595 457.279,456.91 470.859,440.741L470.588,439.765C470.74,439.475 471.227,439.617 471.551,439.574L483.275,437.657C499.37,434.756 514.648,428.737 527.132,417.934C547.404,400.392 554.449,373.405 556.456,347.739L648.307,255.31Z" style="fill:rgb(13,197,213);fill-rule:nonzero;"/>
        </g>
    </g>
    <g transform="matrix(1.77723,0,0,1.77723,-119.504,-647.442)">
        <g transform="matrix(145.189,0,0,145.189,576.889,915)">
        </g>
        <text x="139px" y="915px" style="font-family:'Poppins-Bold', 'Poppins';font-weight:700;font-size:145.189px;fill:white;">Y<tspan x="229.162px 300.45px 400.195px 487.598px " y="915px 915px 915px 915px ">EARS</tspan></text>
    </g>
    <g transform="matrix(1.9001,0,0,1.9001,-136.555,-1561.91)">
        <g transform="matrix(28.1337,0,0,28.1337,543.929,915)">
        </g>
        <text x="139px" y="915px" style="font-family:'Poppins-Regular', 'Poppins';font-size:28.134px;fill:white;">C<tspan x="183.226px 220.166px 254.827px 291.766px 331.519px 371.131px 412.6px 450.328px 479.756px 522.041px " y="915px 915px 915px 915px 915px 915px 915px 915px 915px 915px ">ELEBRATING</tspan></text>
    </g>
    <g transform="matrix(1,0,0,1,0,12)">
        <rect x="129.857" y="175" width="764.807" height="10" style="fill:rgb(253,201,81);"/>
    </g>
    <g transform="matrix(1,0,0,1,0.520524,600)">
        <rect x="129.857" y="175" width="764.807" height="10" style="fill:rgb(253,201,81);"/>
    </g>
    <defs>
        <linearGradient id="_Linear1" x1="0" y1="0" x2="1" y2="0" gradientUnits="userSpaceOnUse" gradientTransform="matrix(-45.5837,-150.85,150.85,-45.5837,456.596,885.789)"><stop offset="0" style="stop-color:rgb(134,46,29);stop-opacity:1"/><stop offset="1" style="stop-color:rgb(188,72,46);stop-opacity:1"/></linearGradient>
        <linearGradient id="_Linear2" x1="0" y1="0" x2="1" y2="0" gradientUnits="userSpaceOnUse" gradientTransform="matrix(-7.12393,-291.029,291.029,-7.12393,333.188,801.728)"><stop offset="0" style="stop-color:rgb(236,109,69);stop-opacity:1"/><stop offset="1" style="stop-color:rgb(255,212,82);stop-opacity:1"/></linearGradient>
        <linearGradient id="_Linear3" x1="0" y1="0" x2="1" y2="0" gradientUnits="userSpaceOnUse" gradientTransform="matrix(-98.0479,-261.344,261.344,-98.0479,751.033,777.851)"><stop offset="0" style="stop-color:rgb(1,48,103);stop-opacity:1"/><stop offset="1" style="stop-color:rgb(0,113,167);stop-opacity:1"/></linearGradient>
        <linearGradient id="_Linear4" x1="0" y1="0" x2="1" y2="0" gradientUnits="userSpaceOnUse" gradientTransform="matrix(41.8519,-225.733,225.733,41.8519,613.59,736.146)"><stop offset="0" style="stop-color:rgb(0,105,198);stop-opacity:1"/><stop offset="1" style="stop-color:rgb(0,184,238);stop-opacity:1"/></linearGradient>
        <linearGradient id="_Linear5" x1="0" y1="0" x2="1" y2="0" gradientUnits="userSpaceOnUse" gradientTransform="matrix(-41.1257,-336.852,336.852,-41.1257,402.754,506.036)"><stop offset="0" style="stop-color:rgb(6,173,143);stop-opacity:1"/><stop offset="1" style="stop-color:rgb(11,255,227);stop-opacity:1"/></linearGradient>
        <linearGradient id="_Linear6" x1="0" y1="0" x2="1" y2="0" gradientUnits="userSpaceOnUse" gradientTransform="matrix(5.58944,96.0317,-96.0317,5.58944,434.95,263.238)"><stop offset="0" style="stop-color:rgb(0,80,73);stop-opacity:1"/><stop offset="1" style="stop-color:rgb(7,161,151);stop-opacity:1"/></linearGradient>
        <linearGradient id="_Linear7" x1="0" y1="0" x2="1" y2="0" gradientUnits="userSpaceOnUse" gradientTransform="matrix(154.619,78.321,-78.321,154.619,363.239,660.627)"><stop offset="0" style="stop-color:rgb(240,116,0);stop-opacity:1"/><stop offset="1" style="stop-color:rgb(253,232,158);stop-opacity:1"/></linearGradient>
        <linearGradient id="_Linear8" x1="0" y1="0" x2="1" y2="0" gradientUnits="userSpaceOnUse" gradientTransform="matrix(-362.891,-485.786,485.786,-362.891,745.078,755.427)"><stop offset="0" style="stop-color:rgb(0,59,52);stop-opacity:1"/><stop offset="1" style="stop-color:rgb(71,148,157);stop-opacity:1"/></linearGradient>
    </defs>
</svg>
