<?xml version="1.0" encoding="UTF-8" standalone="no"?>
<!DOCTYPE svg PUBLIC "-//W3C//DTD SVG 1.1//EN" "http://www.w3.org/Graphics/SVG/1.1/DTD/svg11.dtd">
<svg width="100%" height="100%" viewBox="0 0 200 75" version="1.1" xmlns="http://www.w3.org/2000/svg" xmlns:xlink="http://www.w3.org/1999/xlink" xml:space="preserve" xmlns:serif="http://www.serif.com/" style="fill-rule:evenodd;clip-rule:evenodd;stroke-linejoin:round;stroke-miterlimit:2;">
    <g transform="matrix(1,0,0,1,-0.625,0)">
        <g id="Artboard1" transform="matrix(1,0,0,1,0.625,0)">
            <rect x="0" y="0" width="200" height="75" style="fill:none;"/>
            <clipPath id="_clip1">
                <rect x="0" y="0" width="200" height="75"/>
            </clipPath>
            <g clip-path="url(#_clip1)">
                <g transform="matrix(0.97561,0,0,1,4.87805,0)">
                    <rect x="-5" y="0" width="205" height="75" style="fill:url(#_Radial2);"/>
                </g>
                <g transform="matrix(1,0,0,1,132.6,88.108)">
                    <g transform="matrix(16,0,0,16,21.248,-45)">
                    </g>
                    <text x="-86px" y="-45px" style="font-family:'Poppins-ExtraLight', 'Poppins';font-weight:275;font-size:16px;fill:white;">T<tspan x="-79.28px -70.16px -58.24px -46.8px -39.024px -35.712px -28.992px -20.16px -12.384px -0.992px 5.664px 12.384px " y="-45px -45px -45px -45px -45px -45px -45px -45px -45px -45px -45px -45px ">UMOR TARGETS</tspan></text>
                </g>
            </g>
        </g>
    </g>
    <defs>
        <radialGradient id="_Radial2" cx="0" cy="0" r="1" gradientUnits="userSpaceOnUse" gradientTransform="matrix(136.325,114,-116.85,133,-5,0)"><stop offset="0" style="stop-color:rgb(235,235,235);stop-opacity:1"/><stop offset="1" style="stop-color:rgb(157,69,19);stop-opacity:1"/></radialGradient>
    </defs>
</svg>
