<?xml version="1.0" encoding="UTF-8" standalone="no"?>
<!DOCTYPE svg PUBLIC "-//W3C//DTD SVG 1.1//EN" "http://www.w3.org/Graphics/SVG/1.1/DTD/svg11.dtd">
<svg width="100%" height="100%" viewBox="0 0 969 702" version="1.1" xmlns="http://www.w3.org/2000/svg" xmlns:xlink="http://www.w3.org/1999/xlink" xml:space="preserve" xmlns:serif="http://www.serif.com/" style="fill-rule:evenodd;clip-rule:evenodd;stroke-linejoin:round;stroke-miterlimit:2;">
    <g transform="matrix(1,0,0,1,-7100.21,-1877.85)">
        <g transform="matrix(4.16667,0,0,4.16667,0,0)">
            <path d="M1847.81,542.257L1800.19,566.052C1794.7,568.804 1788.23,564.811 1788.23,558.67L1788.23,511.071C1788.23,504.93 1794.7,500.937 1800.19,503.681L1847.81,527.484C1853.89,530.522 1853.89,539.211 1847.81,542.257ZM1905.92,450.684L1734.68,450.684C1717.76,450.684 1704.05,464.403 1704.05,481.314L1704.05,588.419C1704.05,605.338 1717.76,619.049 1734.68,619.049L1905.92,619.049C1922.84,619.049 1936.55,605.338 1936.55,588.419L1936.55,481.314C1936.55,464.403 1922.84,450.684 1905.92,450.684Z" style="fill:white;fill-rule:nonzero;"/>
        </g>
    </g>
</svg>
